<svg width="42" height="46" viewBox="0 0 42 46" fill="none" xmlns="http://www.w3.org/2000/svg">
<path d="M2.25699 7.12968C1.2418 10.3944 1.54517 13.479 3.79403 16.1918C4.66029 17.237 5.62071 18.2019 6.53862 19.2045C6.82828 19.5203 7.11545 19.8368 7.60705 20.3765L6.41884 20.6608C5.35931 20.9054 4.30245 21.1597 3.23899 21.3896C1.74845 21.7129 0.948822 22.8294 0.374165 24.0693C-0.0672384 25.0217 -0.249003 26.1484 0.625939 26.971C1.85416 28.1212 3.14404 29.2365 4.97517 29.3308C5.51809 29.3771 6.05821 29.4512 6.59344 29.5529C8.26321 29.8266 9.96689 29.8255 11.6369 29.5497C13.898 29.1589 16.1518 28.7412 18.2804 27.8561C18.7835 27.6441 19.303 27.4733 19.8338 27.3455C20.913 27.0956 21.573 27.4696 22.0027 28.5138C22.1283 28.8159 22.2294 29.1245 22.3501 29.4279C23.0309 31.1445 23.6157 32.9051 24.4131 34.5668C25.8015 37.4525 27.3041 40.2839 28.7926 43.1217C29.1905 43.8807 29.6225 44.62 30.0594 45.358C30.5413 44.8118 31.037 44.2777 31.5452 43.7612C30.2825 41.8543 28.9843 39.9622 28.093 37.8325C27.9282 37.4341 27.7368 37.0473 27.5199 36.6747C26.1578 34.3774 25.1256 31.9183 24.0303 29.4787C23.8055 28.9248 23.6285 28.3527 23.5011 27.7687C23.3155 27.0761 23.5181 26.694 24.2434 26.615C25.5779 26.4647 26.7365 25.8736 27.9376 25.3629C28.5952 25.1013 29.267 24.8767 29.9496 24.69C33.2236 23.7236 36.2341 22.353 38.7518 19.9184C40.7908 17.9531 41.5293 15.7355 41.0629 13.0042C40.7382 11.1056 39.6533 9.7544 37.9239 9.13716C35.3068 8.1991 32.687 8.23222 30.3604 10.1146C30.1061 10.2967 29.8424 10.4654 29.5705 10.62C29.5661 10.1622 29.5625 9.90352 29.5595 9.64726C29.554 8.40025 29.653 7.14096 29.5195 5.90723C29.1714 2.64582 26.6707 0.504111 23.4193 0.583216C21.732 0.623529 20.3526 1.27376 19.4206 2.73003C19.0705 3.2776 18.7194 3.8307 18.419 4.40691C17.7291 5.75633 16.9601 7.08502 16.6003 8.5873C16.5127 8.95698 16.3455 9.31392 15.8881 9.40237C15.3025 9.32585 14.9753 8.8601 14.5924 8.49057C12.7141 6.74356 10.5047 5.38887 8.09398 4.506C6.75122 3.99761 5.44765 4.19478 4.13258 4.78059C3.05736 5.27066 2.56183 6.14835 2.25699 7.12968ZM16.046 27.1985C13.7077 27.9375 11.2749 28.335 8.82323 28.3784C7.40716 28.409 5.9968 28.1941 4.65489 27.7432C3.98398 27.5105 3.37907 27.1203 2.8911 26.6053C2.55022 26.2874 2.33975 25.8544 2.30033 25.3902C2.26091 24.9259 2.39534 24.4634 2.67768 24.0921C3.13301 23.4046 3.82047 22.903 4.61479 22.6786C6.20404 22.2528 7.81254 21.987 9.4531 22.253C11.8208 22.6036 14.1404 23.2229 16.3668 24.0988C17.1218 24.4053 17.8904 24.6741 18.6318 25.0079C18.9772 25.2125 19.304 25.4471 19.6082 25.7089C18.4882 26.3436 17.2965 26.8425 16.0582 27.1952L16.046 27.1985ZM32.5771 11.0105C33.0336 10.7107 33.5746 10.5657 34.1198 10.5971C34.6569 10.6394 35.2032 10.5691 35.7484 10.583C36.4315 10.5571 37.1031 10.763 37.6534 11.1672C38.2038 11.5713 38.6005 12.1498 38.7788 12.8084C38.8008 12.9151 38.8291 13.0205 38.8634 13.124C39.7279 15.0851 38.9833 16.701 37.7571 18.2073C36.0576 20.2915 33.8094 21.5837 31.3417 22.5177C29.4627 23.2258 27.5482 23.841 25.6473 24.4868C25.2474 24.6228 24.8306 24.7056 24.139 24.8909C24.2153 24.3223 24.1963 23.9864 24.3144 23.7109C24.5261 23.2161 24.8265 22.7579 25.0786 22.2759C25.7093 21.0788 26.3159 19.8697 26.9647 18.6808C27.4829 17.7306 28.0276 16.7977 28.5989 15.8823C29.172 14.9602 29.7961 14.0717 30.3854 13.161C30.9376 12.2831 31.6883 11.5465 32.5771 11.0105ZM21.038 3.80221C22.3922 1.9889 25.0513 2.1026 26.5221 3.85404C27.2961 4.77083 27.7229 5.92996 27.7283 7.12945C27.7755 8.8677 27.5903 10.6047 27.1776 12.2946C26.7497 14.0329 26.2838 15.7472 25.3276 17.3096C24.7693 18.2277 24.4312 19.2809 23.9742 20.2637C23.656 20.9496 23.3179 21.6303 22.6437 22.1651C22.0347 21.982 21.874 21.5687 21.7111 21.1665C20.9626 19.3019 20.2172 17.4392 19.475 15.5782C19.3728 15.2683 19.2495 14.9657 19.1062 14.6725C17.7188 12.3006 17.9096 9.87317 18.9618 7.48241C19.5122 6.18206 20.2079 4.94775 21.0356 3.80287L21.038 3.80221ZM8.04705 6.23397C9.9256 7.08403 11.7442 8.07344 13.083 9.73435C13.4428 10.1407 13.8319 10.5203 14.2469 10.8703C15.5478 12.0955 16.3732 13.5766 16.9669 15.243C17.3994 16.4648 17.9972 17.6266 18.4683 18.8354C18.8983 19.9399 19.2592 21.0707 19.6316 22.1958C19.6552 22.2839 19.5967 22.3992 19.5335 22.7126C19.137 22.6483 18.7464 22.552 18.3655 22.4249C17.3582 21.9814 16.2905 21.8032 15.2279 21.5948C13.4549 21.2463 11.797 20.5627 10.1524 19.8598C9.10487 19.3903 8.18659 18.6754 7.47538 17.7758C6.58834 16.702 5.41377 15.8207 4.99403 14.4014C3.62834 13.0913 3.70503 11.3763 3.7023 9.69842C3.71881 9.15555 3.81181 8.61762 3.97859 8.10048C4.56009 6.07191 6.17063 5.40169 8.04656 6.24196L8.04705 6.23397Z" fill="#F4F3F0"/>
</svg>
