<svg width="140" height="91" viewBox="0 0 140 91" fill="none" xmlns="http://www.w3.org/2000/svg">
<path d="M24.8025 51.2828C24.9326 51.038 25.2055 50.6768 25.4858 50.3397C26.1287 49.5292 26.6926 48.6591 27.1697 47.7412C27.6167 46.96 28.119 46.2117 28.6728 45.5023C30.3834 43.3725 31.9688 41.1451 33.421 38.8313C33.8404 38.0417 34.4837 37.4215 34.97 36.6775C35.9761 35.1263 35.9038 34.6526 34.5858 33.4362L34.3963 33.3355C31.9056 31.3342 32.4228 31.4469 29.8224 32.9308C25.5835 35.3264 21.3483 37.7341 16.9818 39.9505C16.4552 40.2175 15.9477 40.525 15.3984 40.7395C15.2183 40.8414 15.0148 40.8945 14.8079 40.8936C14.601 40.8928 14.3978 40.838 14.2186 40.7346C14.0394 40.6312 13.8902 40.4828 13.7859 40.3042C13.6816 40.1255 13.6256 39.9227 13.6237 39.7158C13.3346 37.9727 13.106 36.2111 12.829 34.4643C12.6498 33.2959 12.4143 32.1382 12.223 30.9735C12.1769 30.6025 12.0156 30.2554 11.7619 29.9808C11.5082 29.7062 11.1749 29.518 10.8087 29.4427C10.4593 29.3381 10.0973 29.2572 9.74321 29.1805L2.14987 27.6175C2.02353 27.5504 1.85896 27.5744 1.71584 27.5389C1.28696 27.4123 0.817127 27.3247 0.652756 26.8526C0.488384 26.3806 0.849091 26.0255 1.17627 25.7336C3.7313 23.4966 6.26316 21.227 8.87248 19.0593C10.6856 17.552 12.6193 16.1796 14.5025 14.75C14.8491 14.4786 15.1879 14.2029 15.5309 13.9194C15.7107 13.7835 15.8367 13.5884 15.8868 13.3687C15.9368 13.1489 15.9077 12.9185 15.8045 12.7181C15.6124 12.3185 15.4004 11.9288 15.1692 11.5505C14.0846 9.62785 12.9721 7.7005 11.9037 5.76623C11.2033 4.37836 10.6818 2.90724 10.3516 1.38811C10.2853 1.10352 10.2996 0.806098 10.3928 0.52915C10.4974 0.349491 10.6688 0.21855 10.8697 0.164915C10.9417 0.163252 11.013 0.18013 11.0766 0.213916C11.1402 0.247703 11.194 0.297273 11.233 0.357865C11.4476 0.739563 11.6201 1.14347 11.7473 1.56248C12.3676 3.84734 13.3206 6.02855 14.5758 8.03601C15.5289 9.61544 16.4615 11.2144 17.4429 12.7785C20.2967 17.1818 23.6458 21.2434 27.4246 24.884C27.9478 25.4049 28.5077 25.8947 28.9941 26.4466C32.2024 29.9242 35.7065 33.1167 39.4668 35.9883C44.5049 39.9603 49.6123 43.878 54.9652 47.4097C58.5457 49.8953 62.3103 52.1047 66.2262 54.0189C68.9117 55.253 71.6187 56.4276 74.3346 57.5665C77.6047 58.939 80.8921 60.2599 84.1716 61.5766C86.849 62.6545 89.6562 63.3356 92.3985 64.2151C94.7214 64.9587 97.1126 65.4692 99.5367 65.7389C100.27 65.829 100.995 65.9738 101.706 66.1723C105.219 67.0498 108.778 67.7304 112.368 68.2108C113.674 68.419 115.013 68.472 116.334 68.5965C117.3 68.6843 118.291 68.7247 119.227 68.8677C124.196 69.6126 129.252 69.5643 134.206 68.7246C135.716 68.5138 137.293 68.4606 138.839 68.3507C138.988 68.3319 139.138 68.3683 139.261 68.4531C139.409 68.5933 139.518 68.7697 139.576 68.9648C139.577 69.0367 139.56 69.1076 139.526 69.171C139.493 69.2345 139.443 69.2885 139.383 69.3281C138.97 69.5004 138.533 69.6096 138.087 69.6522C135.429 69.7873 132.781 70.0707 130.155 70.5008C126.695 70.8329 123.208 70.7484 119.769 70.249C117.68 69.9696 117.052 69.8181 117.245 72.3708C117.273 73.2584 117.19 74.1459 116.996 75.0126C116.024 79.4814 114.753 83.88 113.192 88.1786C113.019 88.6664 112.791 89.1331 112.514 89.5699C111.917 90.5592 111.103 90.6431 110.385 89.7654C109.368 88.4964 108.4 87.1926 107.351 85.9468C106.504 84.93 105.575 83.9911 104.671 83.0049C104.341 82.5947 103.868 82.3237 103.347 82.2457C102.826 82.1677 102.294 82.2883 101.858 82.5836C100.917 83.0964 99.9236 83.652 98.9351 84.1596C97.9467 84.6673 97.1075 85.1226 96.1814 85.5318C95.2554 85.941 94.6335 85.5297 94.455 84.4933C94.4227 84.3484 94.4062 84.2005 94.4059 84.0521C94.4756 82.3579 94.2971 80.6735 94.371 78.9714C94.5563 75.02 94.4756 71.1501 94.5195 67.2553C94.5406 66.9938 94.474 66.7327 94.3302 66.5133C94.1864 66.294 93.9736 66.1287 93.7254 66.0437C92.325 65.5733 90.9157 65.1386 89.5023 64.7118C89.184 64.6061 88.8399 64.6068 88.522 64.7136C88.2041 64.8205 87.9296 65.0279 87.7397 65.3044C86.2923 67.079 84.9623 68.9462 83.7582 70.8942C81.4803 74.598 79.2011 78.3045 76.9205 82.0135C76.8157 82.211 76.7108 82.4084 76.5549 82.5685C75.8401 83.4949 75.0564 83.4836 74.4693 82.4732C73.223 80.1305 72.0134 77.7568 70.5969 75.506C69.1804 73.2551 69.0792 73.1407 66.3054 73.5403C65.2767 73.6451 64.2731 73.9233 63.3372 74.3632C63.0722 74.4962 62.795 74.6032 62.5094 74.6828C60.6758 75.2377 59.8794 74.602 60.3728 72.7582C61.068 70.1914 61.1382 67.5052 62.0206 64.967C62.0883 64.7552 62.13 64.536 62.1447 64.3141C62.416 61.4209 62.6221 58.574 62.9365 55.7138C63.058 55.0954 62.9484 54.4539 62.6285 53.9108C62.3087 53.3677 61.8009 52.9608 61.2011 52.7671C60.3886 52.3923 59.5977 51.9722 58.8322 51.5088C58.4859 51.3075 58.0821 51.2283 57.6855 51.2838C57.2888 51.3393 56.9224 51.5263 56.6447 51.8149C55.5578 52.705 54.5654 53.7046 53.6833 54.7979C52.7724 55.9586 51.755 57.0317 50.6444 58.003C48.2765 60.1167 45.9511 62.2834 43.6231 64.398C43.058 64.9812 42.4 65.4665 41.6758 65.834C41.408 65.9667 41.0987 65.9885 40.815 65.8946C40.5313 65.8008 40.296 65.5988 40.1602 65.3327C39.9405 64.8634 39.7585 64.3774 39.616 63.8793C38.9296 61.7024 38.1591 59.5315 37.6136 57.3181C37.4954 56.661 37.1559 56.0642 36.6514 55.6268C36.147 55.1895 35.5081 54.9379 34.8409 54.9139C33.0111 54.6609 31.1898 54.3921 29.3606 54.119C28.4241 53.976 27.4919 53.825 26.5248 53.6252C26.0911 53.5365 25.6701 53.3944 25.2713 53.2023C24.5527 52.8206 24.3703 52.2681 24.8154 51.4111L24.8025 51.2828ZM112.576 76.6437L112.815 76.1936C113.197 75.475 113.712 75.1718 113.933 75.4412C114.337 75.9391 114.049 76.424 113.882 76.8919C113.827 77.068 113.732 77.2288 113.604 77.3612C113.475 77.4936 113.317 77.5938 113.143 77.6537C112.938 77.6959 112.725 77.6652 112.541 77.5668C112.446 77.5165 112.363 77.3105 112.386 77.1911C112.434 77.0036 112.498 76.8205 112.576 76.6437ZM111.382 76.2423C111.199 76.4911 110.989 76.7193 110.757 76.9229C110.672 76.984 110.575 77.0255 110.472 77.0444C110.369 77.0634 110.263 77.0592 110.162 77.0323C110.071 76.981 109.993 76.907 109.938 76.8174C109.883 76.7278 109.852 76.6256 109.847 76.5205C110.009 75.5073 110.459 74.562 111.142 73.7965C111.222 73.7197 111.329 73.677 111.441 73.6775C111.552 73.678 111.658 73.7216 111.738 73.7992C111.849 73.8579 111.948 74.0523 111.921 74.1597C111.768 74.8679 111.566 75.5709 111.386 76.2345L111.382 76.2423ZM106.126 74.3009C106.025 74.4904 105.92 74.6878 105.867 74.9025C105.678 75.2579 105.431 75.5318 105.019 75.3737C104.885 75.3106 104.774 75.2052 104.705 75.0734C104.636 74.9417 104.612 74.7909 104.637 74.6443C104.742 73.5422 105.229 72.5115 106.013 71.7302C106.1 71.6738 106.199 71.6404 106.302 71.6332C106.405 71.6259 106.508 71.645 106.602 71.6887C106.681 71.7573 106.744 71.8427 106.786 71.9385C106.827 72.0343 106.848 72.1382 106.844 72.2427C106.719 72.9634 106.476 73.6586 106.126 74.3009ZM108.785 74.6504C108.424 75.3295 108.286 75.5901 108.152 75.8428C107.887 76.3403 107.349 76.591 107.114 76.3852C106.983 76.2579 106.894 76.0932 106.859 75.9135C106.824 75.7338 106.845 75.5478 106.919 75.3805C107.262 74.4211 107.742 73.5166 108.345 72.6956C108.475 72.4508 108.753 72.2337 109.077 72.3657C109.402 72.4977 109.454 72.9709 109.354 73.2925C109.2 73.7597 109.018 74.2174 108.809 74.663L108.785 74.6504ZM14.3067 21.237C14.2084 21.3452 14.0729 21.4123 13.9273 21.425C13.7817 21.4377 13.6366 21.3951 13.521 21.3057C13.2289 21.1505 13.14 20.8603 13.351 20.5775C13.3951 20.5187 13.4511 20.4697 13.5153 20.4338C13.5795 20.3979 13.6505 20.3758 13.7237 20.3689C13.797 20.362 13.8708 20.3706 13.9406 20.394C14.0103 20.4174 14.0744 20.4551 14.1287 20.5047C14.1931 20.5365 14.2498 20.5821 14.2946 20.6382C14.3395 20.6943 14.3716 20.7596 14.3886 20.8294C14.4055 20.8992 14.407 20.9719 14.3928 21.0423C14.3787 21.1127 14.3493 21.1792 14.3067 21.237ZM72.6207 66.092C72.7403 65.91 72.8904 65.75 73.0643 65.619C73.2599 65.5547 73.4718 65.5599 73.664 65.6337C73.7508 65.6799 73.8422 65.8701 73.855 65.9984C73.8772 66.256 73.8245 66.5146 73.7032 66.743C73.5819 66.9713 73.3972 67.1597 73.1713 67.2856C73.0858 67.3533 72.9804 67.3912 72.8713 67.3936C72.7622 67.396 72.6554 67.3626 72.567 67.2987C72.4781 67.2327 72.4131 67.1397 72.3818 67.0336C72.3505 66.9274 72.3546 66.814 72.3935 66.7104C72.4527 66.4983 72.526 66.2903 72.6128 66.0878L72.6207 66.092ZM71.3296 65.5682C70.9563 66.271 70.5213 66.5563 70.1366 66.4228C69.7519 66.2894 69.7175 65.5725 70.2098 64.9127C70.3277 64.7323 70.4897 64.5849 70.6804 64.4843C70.7725 64.4418 70.8727 64.4197 70.9742 64.4194C71.0756 64.4191 71.176 64.4408 71.2683 64.4828C71.4105 64.5583 71.4714 64.8438 71.4707 65.0357C71.4515 65.2195 71.4039 65.3991 71.3296 65.5682ZM67.7105 63.4231C67.2829 64.0566 66.9587 64.5526 66.615 65.0282C66.5328 65.1526 66.4094 65.2441 66.2665 65.2867C66.1236 65.3292 65.9702 65.3201 65.8333 65.2609C65.6965 65.197 65.5895 65.083 65.5341 64.9425C65.4788 64.802 65.4795 64.6456 65.536 64.5056C65.9945 63.4221 66.7131 62.4685 67.6283 61.7292C67.666 61.6581 67.9165 61.7203 68.0186 61.7948C68.1208 61.8693 68.2242 62.0559 68.1938 62.1511C68.0379 62.6353 67.8383 63.1063 67.7105 63.4231ZM69.8751 63.8844C69.4931 64.6919 68.9727 65.4263 68.3377 66.0545C68.2513 66.1073 68.1536 66.139 68.0526 66.147C67.9517 66.1549 67.8502 66.1389 67.7566 66.1003C67.6754 66.0351 67.6109 65.9516 67.568 65.8567C67.5252 65.7618 67.5053 65.6582 67.5101 65.5542C67.6384 64.9145 67.8973 64.3082 68.2704 63.773C68.6435 63.2379 69.1229 62.7853 69.6786 62.4437C69.8092 62.3907 69.9547 62.3886 70.0867 62.4377C70.3236 62.5635 70.3545 62.7723 70.2896 62.9707C70.1692 63.3117 69.9894 63.6313 69.8751 63.8844ZM45.4709 53.5237C45.3208 53.444 45.1313 53.3434 44.9838 53.1638C44.9025 53.0431 44.8719 52.8953 44.8986 52.7523C44.9253 52.6093 45.0072 52.4825 45.1266 52.3993C45.6986 52.2843 46.2904 52.3144 46.8478 52.4867C47.4053 52.659 47.9108 52.9681 48.3182 53.3858C48.3777 53.5178 48.3841 53.6677 48.3361 53.8044C48.288 53.941 48.1892 54.0538 48.0601 54.1195C47.8461 54.1688 47.6249 54.1783 47.4074 54.1474C46.7718 53.9718 46.1413 53.7482 45.4709 53.5237ZM45.5035 51.3846C45.3858 51.3011 45.2829 51.1985 45.199 51.0811C45.1346 50.9561 45.121 50.811 45.161 50.6762C45.2282 50.5489 45.3383 50.4495 45.4719 50.3958C45.6043 50.333 45.753 50.3129 45.8973 50.3383C47.3885 50.695 48.8839 51.0438 50.3741 51.4405C50.4658 51.4938 50.5432 51.5686 50.5996 51.6585C50.6559 51.7484 50.6895 51.8507 50.6974 51.9565C50.7046 52.0302 50.6961 52.1046 50.6727 52.1748C50.6493 52.2451 50.6113 52.3096 50.5613 52.3642C50.5113 52.4188 50.4504 52.4623 50.3824 52.4918C50.3145 52.5213 50.2411 52.5361 50.1671 52.5354C48.5524 52.4809 46.9668 52.0904 45.5114 51.3888L45.5035 51.3846ZM38.0929 36.5544C37.9971 36.4678 37.8836 36.403 37.7602 36.3645C37.6369 36.3259 37.5067 36.3146 37.3785 36.3312C37.2504 36.3478 37.1274 36.3919 37.018 36.4607C36.9085 36.5294 36.8153 36.621 36.7447 36.7292C36.6507 36.8431 36.5636 36.9625 36.4838 37.0868C34.0653 40.4392 31.6395 43.7674 29.2605 47.1407C28.328 48.4577 27.7379 50.0071 26.6712 51.2528C26.4487 51.5193 26.6762 52.0249 27.0373 52.1458C27.4563 52.2874 27.8855 52.3969 28.3211 52.4734L33.59 53.2472C34.387 53.3668 35.1826 53.5464 35.988 53.6502C36.6579 53.6862 37.2952 53.9507 37.7937 54.3997C38.2922 54.8487 38.6217 55.4551 38.7271 56.1176C39.1774 57.9767 39.8085 59.8001 40.3675 61.6259C40.536 62.1915 40.747 62.7436 40.9988 63.2774C41.0343 63.3636 41.0882 63.441 41.1566 63.5044C41.225 63.5677 41.3063 63.6155 41.395 63.6443C41.4837 63.6731 41.5776 63.6823 41.6702 63.6712C41.7628 63.6602 41.8518 63.6292 41.9313 63.5803C42.921 63.0784 43.8306 62.4322 44.6304 61.6629C48.2848 58.3671 51.7645 54.8826 55.0553 51.2238C55.9929 50.1829 55.7046 49.5439 54.7773 48.869C53.8499 48.1942 53.0245 47.7659 52.1998 47.1456C47.6049 43.6925 42.8075 40.5064 38.4073 36.7822L38.0618 36.5177L38.0929 36.5544ZM85.328 63.3451L79.1207 60.8882C77.3381 60.1843 75.5345 59.5199 73.7812 58.7608C71.209 57.6375 68.6744 56.4431 66.1231 55.2803C65.9237 55.1875 65.7168 55.1115 65.5047 55.0531C65.3995 55.018 65.2883 55.0041 65.1777 55.0121C65.0671 55.0202 64.9592 55.0501 64.8601 55.1001C64.7611 55.1501 64.6729 55.2192 64.6007 55.3034C64.5286 55.3876 64.4738 55.4853 64.4395 55.5908C64.3244 55.9384 64.2459 56.2971 64.2052 56.661C64.0202 58.6484 63.8074 60.6311 63.6824 62.62C63.6245 63.9461 63.4027 65.26 63.0221 66.5316C62.5522 68.3182 62.2185 70.1379 62.024 71.9749C61.9158 72.6363 62.2988 73.0017 62.9438 72.7975C64.6412 72.2514 66.4554 72.324 68.1629 71.8541C68.62 71.6978 69.1187 71.7145 69.5644 71.9009C70.0101 72.0873 70.3721 72.4305 70.582 72.8656C71.7579 74.6546 72.8891 76.4704 73.8864 78.3669C74.2262 79.0232 74.5781 79.6759 74.9626 80.3054C75.0068 80.4096 75.077 80.5007 75.1664 80.5701C75.2559 80.6395 75.3617 80.6848 75.4737 80.7016C75.5856 80.7184 75.7 80.7062 75.8059 80.6661C75.9118 80.6261 76.0057 80.5595 76.0785 80.4728C76.5002 80.0656 76.8762 79.6134 77.1997 79.1245C78.532 76.9973 79.8802 74.8786 81.1099 72.6969C82.5711 70.1331 84.1677 67.6489 85.893 65.2549C86.0288 65.0792 86.1535 64.8952 86.2665 64.7041C86.3215 64.6301 86.3604 64.5455 86.3808 64.4556C86.4011 64.3657 86.4025 64.2726 86.3848 64.1821C86.367 64.0917 86.3306 64.006 86.2778 63.9304C86.225 63.8549 86.157 63.7912 86.0782 63.7435C85.8887 63.6428 85.6912 63.538 85.2885 63.3241L85.328 63.3451ZM16.1436 17.3023C16.15 17.2823 16.1599 17.2637 16.1729 17.2471C16.4961 17.4103 16.8046 17.6012 17.0948 17.8178C17.164 17.8978 17.2153 17.9917 17.2452 18.0932C17.2751 18.1946 17.283 18.3013 17.2683 18.406C17.2302 18.5017 17.1688 18.5863 17.0896 18.6521C17.0105 18.7179 16.9161 18.7629 16.8151 18.7829C16.5244 18.7569 16.2366 18.7057 15.9549 18.6297C15.8601 18.5794 15.7168 18.7159 15.5996 18.765C15.6503 18.8957 15.7171 19.0196 15.7985 19.1339C16.0171 19.3512 16.2237 19.5723 16.0559 19.8882C15.9831 20.018 15.8681 20.1191 15.7299 20.1747C15.5918 20.2302 15.4388 20.2368 15.2964 20.1935C14.7979 20.078 14.3116 19.9146 13.8445 19.7057C13.7569 19.6732 13.6782 19.6206 13.6146 19.5523C13.551 19.4839 13.5042 19.4016 13.4781 19.312C13.4519 19.2224 13.4471 19.1279 13.4639 19.036C13.4808 18.9442 13.5189 18.8576 13.5752 18.7831C13.6759 18.5936 13.8792 18.4586 13.9756 18.277C14.0721 18.0954 13.6957 17.6221 13.4818 17.7008C13.1404 17.8145 12.8112 17.9618 12.499 18.1406C10.2683 19.716 8.13212 21.421 6.10141 23.2469C5.36947 23.8645 4.67838 24.5289 4.03248 25.2359C3.42081 25.8728 3.55117 26.428 4.43211 26.7137C5.41287 27.032 6.41244 27.2891 7.42507 27.4834C8.94901 27.7373 10.4565 28.0817 11.9396 28.5146C13.4199 28.987 13.4616 29.0801 13.6867 30.6576C14.0153 33.0696 14.4002 35.471 14.7971 37.8687C14.9438 38.7363 15.3302 38.9618 16.2422 38.6363C17.2882 38.2784 18.3069 37.845 19.2901 37.3394C22.3999 35.64 25.4827 33.896 28.5698 32.144C29.1456 31.8059 29.6905 31.4178 30.1983 30.9842C30.2866 30.915 30.3601 30.8288 30.4146 30.7307C30.4691 30.6326 30.5033 30.5246 30.5154 30.4131C30.5274 30.3015 30.5171 30.1887 30.4849 30.0813C30.4526 29.9738 30.3992 29.8739 30.3278 29.7874C30.0598 29.4358 29.7716 29.1002 29.4646 28.7822C27.6399 26.8613 25.8236 24.9246 23.9706 23.019C22.0933 21.1387 20.3709 19.1098 18.8201 16.9523C18.4031 16.346 17.9292 15.7704 17.4549 15.2147C17.4017 15.1429 17.3345 15.0826 17.2573 15.0375C17.1802 14.9924 17.0946 14.9634 17.0059 14.9522C16.9173 14.9411 16.8272 14.948 16.7413 14.9726C16.6553 14.9972 16.5753 15.0389 16.5059 15.0953C16.0847 15.3943 15.6862 15.7242 15.3136 16.082C15.2587 16.1322 15.216 16.1944 15.1891 16.2638C15.1622 16.3331 15.1516 16.4079 15.1583 16.482C15.165 16.5561 15.1888 16.6277 15.2277 16.6911C15.2666 16.7546 15.3197 16.8081 15.3828 16.8476C15.6323 17.0118 15.8967 17.1522 16.1724 17.2671L16.1436 17.3023ZM112.43 86.4479C112.586 86.1557 112.847 85.4542 113.064 84.7596C113.473 83.4177 113.759 82.0408 114.204 80.7077C114.887 78.5263 115.414 76.299 115.78 74.0427C115.942 73.1717 115.975 72.2816 115.877 71.4011C115.754 70.0502 115.649 69.9236 114.322 69.7349C109.858 69.1649 105.43 68.344 101.059 67.2763C99.83 66.9901 98.5825 66.791 97.3256 66.6804C96.3682 66.5768 96.0131 66.8641 95.8365 67.8637C95.7802 68.1504 95.7476 68.4412 95.7391 68.7333C95.699 71.1723 95.6032 73.6018 95.6473 76.0349C95.7283 77.5059 95.7094 78.9808 95.5906 80.4493C95.4916 81.3294 95.5386 82.2199 95.7297 83.0847C95.7429 83.1781 95.7767 83.2674 95.8287 83.3461C95.8807 83.4248 95.9496 83.491 96.0304 83.5397C96.1112 83.5884 96.2018 83.6185 96.2957 83.6278C96.3896 83.6371 96.4844 83.6254 96.5731 83.5935C97.1327 83.4175 97.6783 83.1996 98.2052 82.9417C99.582 82.2556 100.959 81.5695 102.361 80.8361C102.73 80.5915 103.177 80.4927 103.615 80.5589C104.053 80.6251 104.451 80.8516 104.732 81.1944C106.37 82.675 107.884 84.2883 109.257 86.0178C109.701 86.6045 110.183 87.1615 110.7 87.6853C110.765 87.774 110.853 87.8438 110.954 87.8877C111.055 87.9316 111.166 87.9481 111.276 87.9353C111.385 87.9226 111.49 87.8812 111.578 87.8152C111.666 87.7493 111.736 87.6612 111.779 87.5598C111.917 87.2992 112.056 87.0387 112.383 86.4227L112.43 86.4479Z" fill="#F4F3F0"/>
</svg>
