<svg width="38" height="46" viewBox="0 0 38 46" fill="none" xmlns="http://www.w3.org/2000/svg">
<path d="M16.9868 10.973C17.7906 7.81854 20.2058 5.82017 23.4013 4.3685C24.6103 3.82276 25.7264 3.10932 26.7118 2.25239C30.4625 -0.92067 34.7777 -0.473784 36.3849 3.22555C37.0887 4.8142 37.3933 6.53724 37.2751 8.26209C36.8247 14.7342 36.4238 21.2084 35.2053 27.7031C34.6063 30.9041 33.5853 34.0268 32.1658 36.9989C31.5725 38.2571 31.1856 39.5517 30.6728 40.8342C30.2818 41.8092 30.2646 41.8062 29.0192 42.2315L28.2958 45.3263C27.7954 45.1084 27.3178 44.848 26.8686 44.5483C22.5155 40.9673 17.8685 37.7126 12.9697 34.8138C8.9937 32.4572 5.5646 29.3773 2.88161 25.753C1.29439 23.5675 0.074877 21.2453 0.19853 18.525C0.264864 17.0226 0.77751 15.563 1.67848 14.3114C2.05165 13.7763 2.35395 13.222 2.6638 12.6657C3.40897 11.2648 4.47381 10.0331 5.78174 9.05911C6.96586 8.16885 8.46854 7.74429 9.96944 7.87594C10.4115 7.93389 10.8571 7.96743 11.3039 7.97641C12.173 7.92844 13.0402 8.06728 13.8393 8.38233C14.6385 8.69738 15.3485 9.18034 15.9152 9.7944C16.2013 10.13 16.4845 10.4282 16.9868 10.973ZM27.4491 4.93282C25.1301 6.62301 23.1763 8.71483 21.6955 11.093C20.4051 13.2557 19.2963 15.4537 19.5756 17.7682C19.5806 17.9261 19.5451 18.0832 19.4721 18.2263C19.3991 18.3694 19.2908 18.4943 19.1562 18.5906C18.6868 18.8251 18.3243 19.2131 18.1382 19.6802C18.0376 19.8229 17.9078 19.9456 17.7566 20.0411C17.6054 20.1367 17.4357 20.2032 17.2575 20.2368C17.0915 20.2145 16.9357 20.1497 16.807 20.0495C16.6784 19.9494 16.5819 19.8177 16.5281 19.6688C16.2781 18.7525 16.1521 17.8091 16.153 16.8608C16.1968 15.5819 15.9173 14.3147 15.3375 13.1631C14.4971 11.3271 13.9876 11.0361 11.4254 11.2265C10.9694 11.257 10.5059 11.2896 10.0528 11.3576C6.61904 11.8578 6.44868 11.9722 5.64342 14.6766C5.02499 16.5633 4.91092 18.5592 5.31134 20.4868C5.71176 22.4145 6.61427 24.2143 7.93869 25.7263C12.2051 30.9314 17.2984 35.4873 23.0432 39.2371C23.9444 39.8031 24.9047 40.2824 25.9097 40.6676C26.5184 40.8546 27.1463 40.983 27.7839 41.051C27.977 40.7065 28.145 40.3503 28.2867 39.9849C28.9953 37.4514 29.9075 34.9168 30.3458 32.3794C31.3915 26.1295 32.2234 19.9292 33.23 13.7126C33.4944 12.399 33.245 11.0451 32.5277 9.90058C31.3197 7.8686 29.587 6.15754 27.4869 4.92269L27.4491 4.93282ZM27.481 3.20662L27.6471 3.38351C28.0477 3.19219 28.4346 2.98167 28.8393 2.8045C30.677 2.00675 32.2488 2.16576 33.2875 3.39897C33.8176 4.06642 34.2378 4.80548 34.5343 5.59173C35.0932 7.22626 35.2947 8.95328 35.1268 10.6699C35.129 11.2247 35.1635 11.7786 35.2302 12.3293C35.8315 10.4769 36.0082 8.53005 35.7487 6.61755C35.6217 5.53393 35.3119 4.478 34.831 3.48923C33.5697 0.857594 30.7205 0.59808 27.8916 2.7989C27.8086 2.90512 27.6733 3.05586 27.5188 3.19649L27.481 3.20662ZM18.1542 13.3397C19.0738 11.8871 19.7814 10.7127 20.5448 9.56158C21.3082 8.41042 22.1589 7.25113 23.0912 5.92495C21.5568 6.53583 20.2597 7.58064 19.3821 8.91258C18.5045 10.2445 18.0904 11.7966 18.1982 13.3508L18.1542 13.3397ZM33.2083 7.85552C33.3033 7.17689 33.246 6.48866 33.0403 5.83511C32.8345 5.18157 32.4848 4.5772 32.0136 4.06093C31.2046 3.19369 30.3415 3.22647 29.0913 4.08056L33.2083 7.85552ZM3.78322 20.0684C3.85195 18.9125 3.84091 17.7628 4.00454 16.5967C4.16817 15.4307 4.52232 14.2747 4.82398 12.9953C4.33732 13.1992 3.91649 13.5215 3.60546 13.9285C3.29443 14.3354 3.10461 14.8122 3.05583 15.3089C2.86151 16.9321 3.1119 18.5704 3.78322 20.0684ZM5.99321 25.4613C6.40421 26.7257 7.07806 27.8988 7.97608 28.9132C8.87409 29.9276 9.97859 30.7633 11.2262 31.3724L5.99321 25.4613ZM12.6797 9.99721C10.7193 8.73614 9.8921 8.83564 8.36485 10.4968L12.6797 9.99721ZM1.85457 18.4706C1.70892 19.3347 1.761 20.216 2.00732 21.0557C2.25365 21.8954 2.68855 22.6742 3.28299 23.34L1.85457 18.4706ZM7.52172 9.40208C5.95557 10.0965 5.55733 10.4628 5.10739 11.5147C6.46301 11.1591 6.77818 10.1204 7.52172 9.40208ZM27.2254 42.5671L27.5698 41.7114L26.1826 41.7091C26.2928 41.8585 26.4159 41.9991 26.5506 42.1296C26.7669 42.2867 26.9922 42.4328 27.2254 42.5671Z"
      fill="#50735F"/>
</svg>
