<svg width="84" height="54" viewBox="0 0 84 54" fill="none" xmlns="http://www.w3.org/2000/svg">
<path d="M23.1476 41.7127C23.1763 41.2344 23.1763 40.7539 23.2247 40.2801C23.2779 39.7881 23.3783 39.3025 23.5245 38.8298C23.8525 37.8238 24.2418 36.8389 24.6905 35.8807C25.1181 34.9197 25.5038 33.9102 26.1033 33.044C26.6499 32.255 26.9849 31.3491 27.4963 30.5358C28.0097 29.7031 28.6542 28.9589 29.405 28.3317C29.7951 28.0033 30.2029 27.7013 30.604 27.3906C31.0052 27.0798 31.3226 26.7293 31.7325 26.4494C32.6142 25.8653 33.531 25.3474 34.3774 24.7214C34.7914 24.4507 35.2237 24.2092 35.6712 23.9985C36.1254 23.7543 36.5918 23.5336 37.0686 23.3373C38.026 22.9555 39.0306 22.7049 40.0551 22.5923C41.1307 22.4666 42.2173 22.4424 43.2951 22.341C44.2764 22.221 45.2646 22.1679 46.253 22.1823C46.7644 22.2044 47.2779 22.2374 47.7959 22.2771C48.1769 22.2974 48.5549 22.3558 48.9244 22.4512C49.1504 22.5247 49.3713 22.6131 49.5856 22.7157C49.8281 22.8215 50.0771 22.9053 50.3196 23.0111C50.7494 23.2028 51.1307 23.4739 51.5715 23.6436C52.5587 24.021 53.5254 24.4499 54.4676 24.9286C55.4153 25.4086 56.3345 25.9429 57.2205 26.5288C57.441 26.6742 57.6614 26.8065 57.8818 26.9696C58.1022 27.1327 58.2609 27.3024 58.457 27.4611C58.8494 27.7785 59.2527 28.076 59.6318 28.4089C60.0099 28.7425 60.3697 29.0965 60.7096 29.469C61.04 29.8489 61.3469 30.2486 61.6287 30.6658C61.9229 31.0721 62.2416 31.46 62.5831 31.8274C62.7496 32.0047 62.9028 32.194 63.0415 32.3938C63.176 32.5988 63.2862 32.8192 63.4228 33.022C63.6543 33.3636 63.9364 33.659 64.1524 34.0138C64.2516 34.1747 64.353 34.3334 64.4544 34.4921C64.7519 34.9638 65.0517 35.4355 65.3624 35.9005C65.4339 36.0217 65.5142 36.1373 65.6027 36.2466C65.8231 36.489 66.222 36.1783 66.0016 35.9336C65.734 35.5903 65.493 35.2271 65.2809 34.847C65.0318 34.4591 64.7806 34.0734 64.5403 33.6788C64.3001 33.2843 63.9673 32.9515 63.7248 32.5547C63.6043 32.3387 63.4726 32.129 63.3303 31.9266C63.176 31.7216 62.9997 31.532 62.8255 31.3425C62.1246 30.5821 61.6111 29.6784 60.897 28.929C60.5476 28.5609 60.1798 28.2107 59.7949 27.8799C59.4026 27.5427 58.9772 27.2473 58.5893 26.9101C57.7743 26.2424 56.8958 25.6563 55.9664 25.16C55.0098 24.6156 54.0224 24.1263 53.0196 23.6679C52.5435 23.4475 52.0476 23.2822 51.5671 23.0772C51.0866 22.8722 50.7119 22.5923 50.2446 22.416C49.8097 22.2192 49.3629 22.0498 48.9067 21.909C48.5057 21.8206 48.098 21.766 47.6879 21.7459C46.6682 21.6596 45.6439 21.6427 44.622 21.6952C43.5486 21.7746 42.4774 21.8804 41.404 21.9531C40.3089 21.9997 39.2212 22.1563 38.1574 22.4204C37.1771 22.712 36.2306 23.1073 35.334 23.5995C34.8702 23.8244 34.4244 24.0845 34.0005 24.3776C33.5597 24.695 33.0946 24.9639 32.6428 25.2592C32.191 25.5546 31.7612 25.8147 31.3204 26.1188C30.8795 26.423 30.5864 26.78 30.1941 27.0666C29.3468 27.6575 28.571 28.3446 27.882 29.1142C27.2726 29.8664 26.7546 30.6884 26.3391 31.5629C26.2377 31.7701 26.143 31.9839 26.035 32.1911C25.9009 32.4198 25.7537 32.6406 25.5941 32.8523C25.3133 33.287 25.0685 33.7441 24.8624 34.2188C24.4083 35.2085 23.9543 36.2025 23.5399 37.2054C23.1208 38.1605 22.8367 39.1694 22.6958 40.2029C22.6451 40.679 22.6451 41.1595 22.6164 41.6356C22.5988 41.9618 23.1013 42.0323 23.1212 41.7061L23.1476 41.7127Z" fill="black"/>
<path d="M25.6604 42.266C25.6824 41.9067 25.7022 41.5452 25.7463 41.1882C25.8007 40.8135 25.8892 40.4446 26.0108 40.0861C26.2595 39.3049 26.5622 38.5419 26.9167 37.8027C27.648 36.3538 28.5348 34.9887 29.5616 33.7317C30.4631 32.5658 31.2213 31.272 32.2065 30.1699C32.7106 29.6077 33.289 29.1169 33.9257 28.7108C34.6222 28.27 35.2592 27.73 35.9689 27.3068C36.7528 26.879 37.5904 26.558 38.4595 26.3525C39.3421 26.1131 40.2441 25.9523 41.1551 25.872C42.9334 25.6869 44.7253 25.6714 46.5066 25.8257C47.3839 25.8986 48.2512 26.0634 49.0942 26.3172C49.9119 26.5773 50.6767 26.9784 51.49 27.2473C52.2681 27.5096 53.099 27.611 53.8462 27.9703C54.5786 28.3301 55.281 28.748 55.9467 29.22C56.6079 29.6806 57.2515 30.1766 57.8907 30.6725C58.2003 30.9252 58.4913 31.1999 58.7613 31.4946C59.0068 31.7411 59.2666 31.9729 59.5394 32.1889C59.9607 32.5737 60.3391 33.0031 60.6678 33.4695C61.0536 33.9698 61.4216 34.4833 61.8029 34.9859C61.9506 35.1798 62.1005 35.3738 62.2614 35.5589C62.4818 35.8036 62.8785 35.4928 62.6625 35.246C61.8492 34.3158 61.21 33.2469 60.3879 32.3233C59.9647 31.8495 59.449 31.488 59.0148 31.0273C58.4246 30.4404 57.7853 29.9051 57.1038 29.4272C56.453 28.9345 55.7753 28.4783 55.0739 28.0606C54.7168 27.8451 54.349 27.6479 53.9718 27.4699C53.5837 27.3036 53.1818 27.1716 52.7706 27.0754C52.3584 26.9696 51.9441 26.8748 51.5429 26.7294C51.1418 26.5839 50.7473 26.4076 50.3505 26.2445C49.5231 25.8998 48.6607 25.6463 47.7784 25.4885C45.9754 25.1689 44.146 25.1975 42.3255 25.2857C41.4007 25.3187 40.4794 25.4159 39.5681 25.5766C38.6454 25.7546 37.7388 26.0074 36.8571 26.3326C36.0602 26.6494 35.311 27.0752 34.631 27.5978C33.9698 28.0695 33.2689 28.4794 32.6605 29.0084C31.5012 30.0113 30.6769 31.305 29.7842 32.5349C29.328 33.1741 28.8254 33.7758 28.3626 34.4084C27.8665 35.088 27.4116 35.7968 27.0005 36.5309C26.5894 37.2596 26.2279 38.0151 25.9182 38.7923C25.596 39.5328 25.3658 40.3101 25.2328 41.1066C25.1865 41.4637 25.1689 41.8251 25.1446 42.1844C25.1248 42.5084 25.6295 42.5789 25.6493 42.2527L25.6604 42.266Z" fill="black"/>
<path d="M28.4595 41.2828C28.6411 40.6281 28.9071 39.9999 29.2507 39.4138C29.5677 38.8162 29.9365 38.2476 30.3528 37.7144C31.3556 36.4405 32.213 35.0695 33.1586 33.7471C33.5707 33.1718 33.9939 32.6032 34.4061 32.0279C34.7671 31.5101 35.1556 31.012 35.5698 30.5357C36.3266 29.6575 37.3091 29.0028 38.4109 28.6424C39.3081 28.358 40.2264 28.145 41.1572 28.0054C41.7942 27.9217 42.44 27.8776 43.0814 27.8401C43.6683 27.7963 44.2577 27.7963 44.8446 27.8401C45.443 27.8941 46.034 28.0109 46.6079 28.1884C47.3397 28.4088 48.0339 28.746 48.7547 29.0039C49.5393 29.2816 50.324 29.5659 51.1064 29.8481C51.8744 30.0832 52.6249 30.3719 53.3524 30.7121C53.694 30.8906 54.0136 31.1066 54.3707 31.2719C54.7277 31.4372 55.0848 31.6025 55.4308 31.8075C56.102 32.1946 56.7397 32.637 57.3374 33.1299C57.6415 33.3834 57.9237 33.6611 58.219 33.9344C58.5144 34.2077 58.8053 34.4502 59.1006 34.7059C59.5768 35.1405 60.0299 35.5995 60.4584 36.0812C60.7003 36.3296 60.9133 36.6047 61.0931 36.9011C61.254 37.1788 61.7257 36.9849 61.5604 36.7006C61.2298 36.1319 60.7669 35.7109 60.3349 35.226C60.0788 34.9354 59.8066 34.6595 59.5194 34.3995C59.2285 34.1394 58.9199 33.9036 58.6378 33.6369C58.0581 33.0633 57.4347 32.5356 56.7731 32.0588C56.1231 31.602 55.4334 31.2044 54.7123 30.8707C54.3464 30.7054 54.007 30.4938 53.6544 30.3021C53.2888 30.1107 52.9094 29.9471 52.5193 29.8128C51.7258 29.5241 50.9345 29.2331 50.141 28.951C49.3476 28.6689 48.5321 28.3845 47.7408 28.0694C47.115 27.8088 46.4654 27.6095 45.8012 27.4743C44.5383 27.2274 43.2489 27.3089 41.9771 27.4236C41.475 27.4612 40.9754 27.5267 40.4805 27.6197C39.956 27.7255 39.4336 27.8401 38.9134 27.9856C38.4712 28.0877 38.0384 28.2271 37.6196 28.4022C36.9928 28.6816 36.4111 29.0531 35.8938 29.5042C34.9174 30.3638 34.2033 31.4592 33.4451 32.504C32.969 33.1652 32.4907 33.8088 32.0345 34.4766C31.5782 35.1445 31.0911 35.874 30.5952 36.5551C30.1544 37.1612 29.6607 37.7277 29.2728 38.369C28.9158 38.9391 28.5976 39.5326 28.3206 40.1455C28.1715 40.4899 28.0535 40.8469 27.968 41.2123C27.8908 41.5319 28.3955 41.598 28.4727 41.2828H28.4595Z" fill="black"/>
<path d="M20.4763 43.9697C20.5005 44.0512 20.4763 43.9498 20.4763 43.9234C20.4763 43.8969 20.4763 43.833 20.4763 43.7889C20.4763 43.6589 20.4763 43.5289 20.4763 43.401C20.4939 43.0484 20.5226 42.6957 20.5534 42.3453C20.6063 41.759 20.679 41.1771 20.7319 40.582C20.8131 39.5532 21.0121 38.5371 21.3248 37.5536C21.6555 36.5419 22.0786 35.5699 22.4644 34.5737C22.9052 33.4231 23.4143 32.2946 23.8948 31.1551C24.1306 30.5931 24.3599 30.0222 24.6508 29.4844C24.9215 29.0053 25.2264 28.5464 25.5633 28.1113C25.9027 27.6705 26.2444 27.2098 26.6146 26.7888C26.9849 26.3679 27.3927 25.9865 27.7872 25.5876C28.1898 25.1651 28.6245 24.7745 29.0876 24.4194C29.5769 24.0558 30.0662 23.6921 30.5622 23.3372C31.6025 22.5989 32.7045 21.9619 33.8088 21.3271C34.9104 20.6852 36.0539 20.1182 37.2317 19.63C37.8251 19.4192 38.439 19.2714 39.0633 19.1891C39.7245 19.0723 40.3637 18.9687 41.0183 18.8828C42.2606 18.6856 43.5131 18.559 44.7697 18.5037C45.399 18.4881 46.0282 18.5368 46.6476 18.6491C47.2608 18.7416 47.8674 18.8734 48.4637 19.0437C49.0588 19.2354 49.6187 19.5374 50.1917 19.7798C50.7648 20.0223 51.3268 20.1854 51.8889 20.4058C52.4442 20.6212 52.9642 20.9184 53.4317 21.2874C53.8992 21.6748 54.3926 22.0298 54.9085 22.3498C55.8981 22.9273 56.8811 23.5334 57.8113 24.2078C58.2521 24.5318 58.6686 24.9132 59.1073 25.2526C59.5759 25.5906 60.022 25.9588 60.4429 26.3546C61.21 27.115 62.0277 27.8292 62.755 28.6292C63.4317 29.3764 64.051 30.1721 64.6682 30.9788C65.3294 31.8472 65.9906 32.731 66.5813 33.6523C66.848 34.0689 67.1037 34.4943 67.3351 34.9329C67.4872 35.2195 67.9567 35.0233 67.8024 34.7323C66.7797 32.8016 65.4087 31.0515 64.0312 29.3632C63.3657 28.5475 62.6494 27.7745 61.8866 27.0489C61.4833 26.6654 61.0909 26.2731 60.6898 25.8896C60.2634 25.4982 59.8161 25.1303 59.3497 24.7875C58.8935 24.4349 58.4681 24.0359 57.9942 23.7053C57.5203 23.3747 57.0442 23.0683 56.5704 22.7465C56.0502 22.3939 55.4882 22.1074 54.9526 21.7789C54.417 21.4505 53.9739 21.0362 53.4758 20.6769C52.4818 19.9451 51.2717 19.6895 50.1543 19.2002C49.5945 18.9244 49.0155 18.6894 48.4219 18.4971C47.8078 18.3345 47.1853 18.2058 46.5572 18.1113C45.2744 17.9042 44.0049 18.0232 42.7221 18.1687C41.3864 18.3207 40.0596 18.5103 38.7327 18.7395C38.1228 18.8252 37.5247 18.9798 36.9496 19.2002C36.3457 19.447 35.7528 19.7137 35.1709 20.0091C34.0116 20.5998 32.8897 21.2676 31.7744 21.9332C30.6591 22.5989 29.6805 23.3483 28.6666 24.1021C28.1798 24.4918 27.721 24.9153 27.2935 25.3694C26.9056 25.7529 26.5155 26.1276 26.1606 26.542C25.4048 27.3868 24.74 28.3088 24.1769 29.2927C23.8706 29.8569 23.6347 30.4564 23.3857 31.0559C23.1366 31.6554 22.8919 32.2087 22.6363 32.7817C22.1536 33.8617 21.7546 34.9858 21.3138 36.0879C20.9001 37.0995 20.5863 38.1493 20.3771 39.2221C20.2537 39.9252 20.2074 40.6437 20.1346 41.3534C20.0619 42.0631 19.9804 42.7861 19.9605 43.5024C19.9414 43.7239 19.9571 43.947 20.0068 44.1636C20.0994 44.4766 20.5666 44.276 20.4741 43.9631L20.4763 43.9697Z" fill="black"/>
<path d="M17.3707 47.5447C17.1208 47.4074 16.8865 47.2433 16.672 47.0554C16.4849 46.9254 16.3184 46.7678 16.1783 46.5881C16.0392 46.3146 15.9639 46.0132 15.9579 45.7065C15.9152 45.4794 15.9405 45.2448 16.0306 45.032C16.1805 44.8435 16.3654 44.6856 16.575 44.567C16.8013 44.4241 17.046 44.3128 17.3024 44.2364C17.8384 44.0872 18.3984 44.0438 18.951 44.1085C19.2273 44.1367 19.5012 44.1839 19.771 44.2496C19.8988 44.2782 20.0266 44.2804 20.1545 44.3047C20.2762 44.3408 20.3948 44.3865 20.5093 44.4413C20.6165 44.4898 20.7362 44.5035 20.8516 44.4806C20.967 44.4577 21.0724 44.3992 21.1529 44.3135C21.2487 44.1332 21.2813 43.926 21.2455 43.725C21.2279 42.5767 22.385 41.867 23.4297 41.9287C24.0754 42.003 24.7005 42.2021 25.2702 42.515C25.5288 42.6432 25.7549 42.8287 25.9314 43.0572C26.1225 43.3214 26.3445 43.5619 26.5926 43.7735C26.6234 43.7971 26.6592 43.8133 26.6973 43.8208C26.7353 43.8284 26.7746 43.8271 26.812 43.8171C26.8495 43.8071 26.8842 43.7886 26.9134 43.7631C26.9426 43.7376 26.9656 43.7057 26.9805 43.6699C27.0863 43.3922 27.0048 43.1057 27.1282 42.8324C27.253 42.5751 27.4199 42.3404 27.6219 42.1381C28.0279 41.6895 28.5338 41.3429 29.0986 41.1264C29.4088 41.0303 29.7372 41.0084 30.0574 41.0625C30.3642 41.0946 30.6608 41.1907 30.928 41.3446C31.3527 41.6674 31.6992 42.0818 31.9419 42.5568C32.0565 42.7773 32.0323 43.0462 32.2064 43.2401C32.3805 43.4341 32.6604 43.4495 32.9271 43.4054C33.4499 43.3323 33.9827 43.4008 34.47 43.6038C34.7145 43.7083 34.9312 43.8686 35.1026 44.0718C35.2741 44.275 35.3956 44.5156 35.4574 44.7742C35.5068 44.9037 35.525 45.043 35.5104 45.1809C35.4959 45.3188 35.449 45.4513 35.3737 45.5676C35.2132 45.7764 35.016 45.9542 34.7918 46.0922C34.27 46.4483 33.6917 46.7136 33.0814 46.8769C32.8525 46.8969 32.6287 46.9565 32.4202 47.0532C32.3176 47.1202 32.2427 47.2219 32.2091 47.3397C32.1755 47.4576 32.1855 47.5835 32.2373 47.6946C32.3232 47.9392 32.4841 48.1354 32.526 48.3889C32.5612 48.5902 32.5414 48.7973 32.4687 48.9884C32.2944 49.3558 31.9986 49.6517 31.6311 49.8259C31.2372 50.0362 30.82 50.1996 30.388 50.313C29.7168 50.4708 29.021 50.4948 28.3404 50.3836C28.0205 50.3335 27.7152 50.2147 27.4456 50.0353C27.2255 49.8686 26.9819 49.7357 26.7226 49.6408C26.0284 49.4534 26.1253 50.399 26.0217 50.8133C25.9613 51.102 25.8435 51.3756 25.6754 51.6179C25.5073 51.8602 25.2923 52.0663 25.0431 52.224C24.5604 52.4995 23.9764 52.5656 23.4364 52.6229C22.8567 52.6824 22.2351 52.6758 21.748 52.3143C21.4975 52.1484 21.294 51.9207 21.1573 51.6531C21.0648 51.4525 21.0273 51.2321 20.9369 51.0293C20.9003 50.9214 20.8424 50.8219 20.7667 50.7368C20.691 50.6516 20.599 50.5824 20.4961 50.5334C20.4442 50.5127 20.3871 50.5093 20.3331 50.5235C20.2791 50.5378 20.2312 50.5691 20.1964 50.6128C20.1107 50.734 20.0368 50.8631 19.9759 50.9985C19.8857 51.1311 19.7647 51.24 19.6233 51.3159C19.3197 51.5108 18.985 51.6524 18.6337 51.7347C18.2832 51.8118 17.9239 51.8537 17.5691 51.9022C17.3141 51.9408 17.0548 51.9408 16.7999 51.9022C16.5452 51.8701 16.3049 51.7662 16.107 51.6027C15.9092 51.4391 15.7619 51.2227 15.6824 50.9787C15.5215 50.4893 15.376 49.8766 15.6824 49.416C15.7804 49.2752 15.8688 49.1279 15.9469 48.9751C16.0318 48.8136 16.158 48.6774 16.3128 48.5806C16.6169 48.3602 16.9321 48.0847 17.3156 48.0362C17.3779 48.0221 17.4327 47.9851 17.4691 47.9326C17.5055 47.8801 17.5209 47.8159 17.5124 47.7526C17.5038 47.6893 17.4718 47.6314 17.4228 47.5905C17.3737 47.5496 17.3111 47.5285 17.2473 47.5315C16.8517 47.615 16.4829 47.7952 16.1739 48.056C16.007 48.1646 15.8512 48.2894 15.7088 48.4285C15.5877 48.5784 15.4869 48.7437 15.4091 48.92C15.2374 49.1517 15.1069 49.4111 15.0234 49.6871C14.9746 50.0561 15.0024 50.4312 15.1049 50.7891C15.2702 51.4702 15.592 52.0256 16.2775 52.2857C16.963 52.5458 17.6969 52.4267 18.4022 52.3077C18.8719 52.2372 19.3246 52.081 19.7379 51.8471C19.9317 51.7462 20.1099 51.6177 20.2669 51.4658C20.4168 51.3093 20.463 51.0955 20.6041 50.9346L20.3021 51.0139C20.4807 51.0889 20.5358 51.4151 20.5865 51.5782C20.6623 51.852 20.7978 52.1056 20.9832 52.3209C21.4107 52.8118 22.0155 53.1131 22.6649 53.1585C23.3003 53.1919 23.9371 53.125 24.5516 52.9601C25.1204 52.8291 25.6283 52.5099 25.9931 52.0542C26.2289 51.7367 26.3997 51.3756 26.4956 50.9919C26.5404 50.8262 26.5678 50.6563 26.5772 50.4849C26.5688 50.3227 26.6146 50.1622 26.7072 50.0287L26.5375 50.1257C26.7204 50.1257 26.9232 50.3108 27.0687 50.4056C27.2851 50.5509 27.5164 50.6728 27.7586 50.7693C28.2773 50.9301 28.8211 50.9951 29.3631 50.961C30.2021 50.9447 31.0253 50.7302 31.7656 50.3351C32.3827 50.0111 32.9756 49.4997 33.044 48.7613C33.0598 48.5904 33.0501 48.4181 33.0153 48.25C32.96 48.0321 32.8747 47.8229 32.7618 47.6284C32.7403 47.5786 32.716 47.5301 32.6891 47.483C32.7526 47.4575 32.8194 47.4412 32.8875 47.4345C33.1072 47.3973 33.3238 47.3435 33.5355 47.2736C34.0064 47.1068 34.4585 46.8911 34.8844 46.63C35.2696 46.4273 35.5984 46.1319 35.8409 45.7704C36.2994 44.9946 35.7836 43.8595 35.0982 43.3834C34.7512 43.1532 34.3575 43.0026 33.9454 42.9426C33.739 42.9099 33.5306 42.8915 33.3217 42.8875C33.2247 42.8875 33.1277 42.8875 33.0307 42.8875C32.9153 42.9128 32.7982 42.9298 32.6803 42.9382C32.5106 42.9205 32.5128 42.6803 32.4731 42.5414C32.4035 42.3439 32.3031 42.1587 32.1755 41.9926C31.9436 41.6235 31.6559 41.2927 31.3226 41.0118C30.8691 40.699 30.3306 40.5329 29.7797 40.5357C29.2049 40.532 28.6432 40.7077 28.1729 41.0382C27.7321 41.3192 27.3399 41.6698 27.0114 42.0764C26.8583 42.2644 26.7322 42.4728 26.6367 42.6957C26.5868 42.8061 26.554 42.9236 26.5397 43.0439C26.5502 43.1914 26.5413 43.3396 26.5133 43.4848L26.9012 43.3812C26.6774 43.1788 26.4764 42.9526 26.3017 42.7067C26.1147 42.4764 25.8859 42.2834 25.6272 42.1381C25.0785 41.825 24.4832 41.6018 23.8639 41.4768C22.6605 41.2564 21.3315 41.77 20.8774 42.969C20.7784 43.2247 20.7297 43.4971 20.7341 43.7713C20.7408 43.8542 20.7408 43.9375 20.7341 44.0204C20.7341 43.9741 20.7959 44.0204 20.754 43.9873C20.7334 43.9859 20.7128 43.9859 20.6923 43.9873L20.4719 43.8925C20.349 43.8418 20.2188 43.8112 20.0861 43.8022C19.9281 43.781 19.7713 43.7508 19.6167 43.7118C19.3202 43.6513 19.0196 43.6137 18.7174 43.5994C18.1052 43.5604 17.4915 43.6444 16.9123 43.8462C16.6278 43.9506 16.3598 44.0953 16.1166 44.276C15.9056 44.4159 15.7225 44.5937 15.5766 44.8006C15.4409 45.0851 15.3918 45.4032 15.4355 45.7153C15.4479 46.0824 15.5349 46.4431 15.6912 46.7755C15.8519 47.0347 16.0624 47.2594 16.3106 47.4367C16.5745 47.6659 16.8627 47.8654 17.1701 48.0318C17.4633 48.1817 17.6572 47.71 17.3663 47.5623L17.3707 47.5447Z" fill="black"/>
<path d="M56.2618 39.9054C56.1304 39.1414 56.2875 38.3559 56.7027 37.7013C57.2052 36.8571 58.2257 36.6455 59.1426 36.7667C59.6513 36.8191 60.1391 36.9971 60.562 37.2847C60.7251 37.4037 60.9654 37.6792 61.1902 37.6506C61.3511 37.6307 61.4106 37.4853 61.4591 37.3552C61.5343 37.0555 61.6571 36.7698 61.8228 36.5089C62.1335 36.1121 62.5104 35.6713 63.0108 35.5236C63.672 35.3297 64.3707 35.7242 64.9636 35.9645C65.241 36.0542 65.5012 36.1906 65.7328 36.3678C65.9045 36.5408 66.1177 36.6668 66.3521 36.7337C66.3968 36.7403 66.4423 36.7345 66.4839 36.717C66.5255 36.6995 66.5615 36.671 66.588 36.6345C66.6808 36.5036 66.755 36.3604 66.8084 36.2091C66.8817 36.043 66.9874 35.8932 67.1192 35.7683C67.3748 35.5104 67.6526 35.2702 67.9303 35.0365C68.4896 34.5384 69.1359 34.1477 69.8368 33.8838C70.5274 33.639 71.258 33.5268 71.9902 33.5532C72.2788 33.5477 72.5631 33.6241 72.8101 33.7736C73.0746 33.9631 73.0812 34.3026 73.1033 34.6001C73.1348 34.932 73.1003 35.2669 73.0019 35.5854C72.8951 35.8257 72.821 36.0792 72.7815 36.3392C72.7755 36.4053 72.7841 36.4719 72.8064 36.5344C72.8288 36.597 72.8645 36.6539 72.911 36.7013C72.9576 36.7486 73.0138 36.7853 73.0759 36.8088C73.1381 36.8323 73.2045 36.842 73.2708 36.8373C73.3964 36.8373 73.5198 36.7998 73.6455 36.7998C73.8284 36.7998 74.0113 36.8395 74.1921 36.8549C74.4874 36.8792 74.8313 36.8549 75.0847 37.0224C75.2629 37.1686 75.3851 37.3718 75.4308 37.5977C75.5471 38.088 75.5326 38.6003 75.3889 39.0832C75.1735 39.7176 74.7746 40.2738 74.2428 40.6812C73.9695 40.9016 73.6851 41.122 73.3942 41.3292C73.0965 41.498 72.7778 41.627 72.4464 41.7127C72.2945 41.763 72.1516 41.8375 72.0233 41.9331C71.951 41.9785 71.895 42.0456 71.8634 42.1248C71.8317 42.204 71.8259 42.2913 71.8469 42.3739C71.9042 42.6721 71.9461 42.973 71.9726 43.2754C72.0032 43.5647 71.9297 43.8553 71.7654 44.0953C71.558 44.3486 71.2926 44.5482 70.9917 44.6772C70.3482 44.9814 69.6693 45.0056 68.9684 44.9792C68.1603 44.9643 67.3575 44.8465 66.5792 44.6287C66.4089 44.5866 66.244 44.5252 66.0877 44.4458C65.9826 44.3785 65.8728 44.3189 65.7592 44.2672C65.5105 44.1908 65.2669 44.0988 65.0297 43.9917C64.9239 43.9322 64.8556 43.8485 64.7299 43.8264C64.6629 43.8097 64.5929 43.8089 64.5255 43.8243C64.4581 43.8396 64.3952 43.8705 64.342 43.9146C64.2826 43.9897 64.2425 44.0783 64.2252 44.1725C64.163 44.3014 64.0829 44.4209 63.9872 44.5273C63.6637 44.9984 63.2351 45.3877 62.7352 45.6646C62.0572 46.0249 61.3137 46.2453 60.5488 46.3126C59.9927 46.3382 59.4369 46.2574 58.9112 46.0746C58.6812 46.0051 58.4706 45.8828 58.2962 45.7175C58.2011 45.6025 58.1304 45.4693 58.0884 45.3261C58.0463 45.1829 58.0338 45.0326 58.0516 44.8844C58.0802 44.5301 58.14 44.1791 58.2301 43.8352C58.2347 43.7965 58.2305 43.7572 58.2177 43.7204C58.2049 43.6835 58.184 43.65 58.1564 43.6224C58.1288 43.5949 58.0953 43.5739 58.0584 43.5611C58.0216 43.5483 57.9823 43.5441 57.9436 43.5487C57.6063 43.606 57.2978 43.7691 56.9627 43.8154C56.6226 43.8606 56.278 43.8606 55.9378 43.8154C55.6205 43.7801 55.3053 43.7339 54.9923 43.6832C54.7428 43.6634 54.5025 43.5807 54.2936 43.4429C54.0842 43.2688 54.0732 42.9602 54.0622 42.7068C54.0602 42.4166 54.0883 42.1271 54.1459 41.8428C54.2401 41.4533 54.4286 41.0931 54.6947 40.7936C55.0121 40.4013 55.4463 40.031 55.9819 40.1632C56.2993 40.2426 56.3654 39.7378 56.0525 39.6607C55.4574 39.513 54.9152 39.826 54.5096 40.2382C54.1693 40.5714 53.9054 40.9745 53.736 41.4196C53.6304 41.7513 53.5725 42.0964 53.564 42.4445C53.5251 42.7847 53.565 43.1294 53.6809 43.4517C53.952 44.0755 54.6903 44.1526 55.2832 44.2408C55.7447 44.3204 56.2124 44.3573 56.6806 44.351C57.1523 44.3334 57.5623 44.1306 58.0031 44.0534L57.7165 43.7669C57.5623 44.4612 57.3529 45.3098 57.8113 45.9379C58.1618 46.4184 58.7921 46.5992 59.3542 46.7094C60.0578 46.8576 60.786 46.8433 61.4833 46.6675C62.2442 46.5016 62.961 46.1755 63.586 45.7109C63.8538 45.4832 64.0948 45.2259 64.3046 44.9439C64.4168 44.8027 64.5213 44.6556 64.6175 44.5031C64.6711 44.4295 64.7059 44.344 64.7189 44.254C64.7181 44.243 64.7181 44.232 64.7189 44.221C64.763 44.2739 64.4588 44.2871 64.6814 44.3245L64.5161 44.2298C64.7182 44.4117 64.9596 44.5445 65.2215 44.6177C65.3405 44.6596 65.4639 44.6882 65.5785 44.7367C65.6931 44.7852 65.7989 44.869 65.9268 44.9285C66.2955 45.0882 66.6828 45.2015 67.0795 45.2657C67.48 45.3461 67.8847 45.4035 68.2917 45.4376C69.0301 45.4993 69.8148 45.55 70.5377 45.3605C71.1703 45.1952 71.8601 44.8646 72.2282 44.2915C72.6338 43.6303 72.42 42.8809 72.323 42.1778C72.2899 42.2549 72.2591 42.3343 72.226 42.4114C72.4993 42.1381 72.8873 42.1006 73.2223 41.9706C73.5774 41.8018 73.9069 41.5836 74.2009 41.3226C74.7971 40.9115 75.2923 40.3704 75.649 39.7401C75.9179 39.1932 76.0358 38.5845 75.9906 37.9768C75.9576 37.4368 75.7702 36.8285 75.2831 36.5375C74.9547 36.3436 74.5844 36.3634 74.2185 36.3303C74.0356 36.3149 73.8526 36.2818 73.6697 36.2774C73.5927 36.2708 73.5153 36.2708 73.4383 36.2774C73.4074 36.2774 73.2553 36.2774 73.2377 36.3083C73.2664 36.2752 73.2597 36.4273 73.2862 36.2642C73.298 36.2072 73.3142 36.1512 73.3347 36.0967C73.3854 35.949 73.4449 35.8058 73.4868 35.6559C73.589 35.3139 73.6271 34.956 73.5992 34.6001C73.5749 34.2607 73.5595 33.8816 73.3545 33.5929C73.1391 33.3275 72.8371 33.1465 72.5015 33.0815C71.8073 32.9074 70.9917 33.0242 70.2975 33.1873C69.4346 33.3931 68.6268 33.7842 67.9303 34.3334C67.5556 34.6222 67.2029 34.9396 66.8591 35.2636C66.7094 35.3951 66.5748 35.543 66.4579 35.7044C66.3389 35.8851 66.2948 36.1121 66.1626 36.2796L66.3984 36.1805C66.1604 36.1254 65.9774 35.8543 65.7747 35.7264C65.4487 35.5502 65.108 35.4027 64.7564 35.2856C64.1062 35.0211 63.4229 34.7676 62.7242 35.0211C62.149 35.2305 61.6574 35.7595 61.3158 36.2532C61.217 36.406 61.1426 36.5733 61.0954 36.7491C61.0645 36.8439 61.0337 36.9387 61.0006 37.0312C60.9874 37.0753 60.9698 37.1172 60.9543 37.1613C60.9389 37.2054 60.9389 37.1943 60.9543 37.1855L61.1219 37.0885C61.2431 37.0621 61.1219 37.0202 61.0535 36.9695C60.9852 36.9188 60.9477 36.8836 60.8926 36.8439C60.7698 36.7531 60.6401 36.672 60.5047 36.6014C59.6901 36.1948 58.7622 36.0745 57.8708 36.2598C57.3306 36.3639 56.8413 36.6474 56.4823 37.0643C56.2502 37.3633 56.0658 37.6963 55.9356 38.0517C55.7054 38.6458 55.6458 39.2924 55.7637 39.9186C55.8232 40.2404 56.328 40.1743 56.2663 39.8525L56.2618 39.9054Z" fill="black"/>
<path d="M30.3924 40.6921C30.4721 40.4388 30.5919 40.1999 30.7473 39.9846C30.9331 39.7628 31.1067 39.531 31.2675 39.2903C31.5738 38.7988 31.9287 38.3514 32.2505 37.8665C32.4048 37.6329 32.5745 37.4103 32.7376 37.181C32.89 36.9381 33.0602 36.7068 33.2467 36.489C33.4076 36.3192 33.5068 36.1165 33.6567 35.9401C33.8484 35.7197 34.0512 35.4993 34.2474 35.2789C34.4436 35.0585 34.6463 34.8822 34.8425 34.6816C35.0531 34.4593 35.2511 34.2253 35.4354 33.9807C35.8025 33.5121 36.2226 33.0876 36.6873 32.7156C37.1278 32.3294 37.5884 31.9667 38.0671 31.6289C38.5449 31.3453 39.0566 31.1231 39.5901 30.9677C39.8634 30.8752 40.1301 30.7605 40.4078 30.6746C40.6855 30.5886 40.9919 30.4542 41.2894 30.3748C41.587 30.2955 41.8669 30.2734 42.1534 30.2205C42.4736 30.1622 42.7966 30.1202 43.121 30.0949C43.7307 30.0285 44.3439 30.0005 44.957 30.0111C45.2458 30.0266 45.5323 30.0266 45.8188 30.053C46.1054 30.0795 46.4073 30.1368 46.7005 30.1809C47.2603 30.2624 47.8025 30.5181 48.3359 30.701C48.8803 30.8786 49.4095 31.0997 49.9184 31.3623C50.163 31.4904 50.4147 31.6045 50.6722 31.7039C50.9363 31.8264 51.188 31.974 51.4238 32.1447C51.6442 32.2858 51.8646 32.4246 52.085 32.5436C52.2107 32.6076 52.3429 32.6538 52.4664 32.72C52.5898 32.7861 52.7022 32.8721 52.8256 32.9404C52.949 33.0087 53.0923 33.044 53.2246 33.1057C53.3568 33.1674 53.5001 33.2556 53.6367 33.3261C53.9233 33.487 54.2186 33.6303 54.5184 33.7823C54.7652 33.9102 55.0341 34.0027 55.2699 34.1504C55.5091 34.3272 55.736 34.5201 55.9488 34.7279C56.1935 34.9351 56.3896 35.1687 56.6563 35.3715C56.8767 35.5324 57.1126 35.6646 57.3175 35.8432C57.6283 36.1165 57.895 36.4339 58.1992 36.7094C58.4438 36.9298 58.7502 36.5198 58.5077 36.3038C58.219 36.0481 57.9633 35.7572 57.679 35.4949C57.5263 35.3599 57.3635 35.2368 57.1919 35.1268C56.9472 34.9544 56.7179 34.7612 56.5064 34.5494C56.2971 34.351 56.0656 34.1791 55.8584 33.9829C55.6647 33.7995 55.4411 33.6504 55.1972 33.5421C54.6682 33.2952 54.1503 33.0307 53.6411 32.7442C53.4207 32.6208 53.1761 32.5503 52.9601 32.4224C52.7441 32.2946 52.4708 32.1667 52.2239 32.0323C51.7126 31.759 51.2717 31.3997 50.7273 31.1859C50.1829 30.9721 49.698 30.6569 49.1448 30.4608C48.5916 30.2646 47.9766 30.0486 47.3815 29.837C47.1334 29.7537 46.877 29.6975 46.6167 29.6695C46.3192 29.6298 46.0238 29.5703 45.7241 29.5505C45.0991 29.5009 44.4712 29.5009 43.8462 29.5505C43.2246 29.6034 42.6119 29.6343 41.997 29.7445C41.6884 29.8018 41.3754 29.8348 41.0734 29.9208C40.7715 30.0067 40.4916 30.1412 40.1918 30.2205C39.8921 30.2999 39.6496 30.4211 39.3763 30.5115C39.103 30.6018 38.8275 30.6944 38.5608 30.8046C38.0203 31.0461 37.5177 31.3646 37.0686 31.7502C36.5647 32.1231 36.0841 32.5265 35.6293 32.958C35.2128 33.3988 34.891 33.8925 34.4766 34.3223C34.0054 34.7646 33.5636 35.2373 33.1542 35.7374C33.066 35.8586 33.0043 35.9908 32.9051 36.1032C32.7951 36.2158 32.6914 36.3342 32.5943 36.4581C32.407 36.7204 32.2284 36.9915 32.0411 37.2538C31.8538 37.5161 31.6818 37.8092 31.4857 38.0759C31.2895 38.3426 31.0911 38.5894 30.9192 38.8672C30.7503 39.133 30.5656 39.3884 30.366 39.632C30.1626 39.8977 30.0054 40.1957 29.9009 40.5136C29.7863 40.82 30.2558 41.0161 30.3704 40.7098L30.3924 40.6921Z" fill="black"/>
<path d="M8.89732 4.33744C6.7478 6.5665 8.77449 8.98663 11.661 7.5855C14.2404 6.37544 13.5649 3 10.7398 3C10.4327 3 9.6343 3.57319 8.89732 4.33744ZM12.0295 5.61119C12.0295 5.92963 11.4767 6.18438 10.8012 6.18438C9.45005 6.18438 9.14298 5.16538 10.3713 4.71956C11.2925 4.40113 12.0295 4.78325 12.0295 5.61119Z" fill="#50735F"/>
<path d="M28.8973 9.33744C26.7478 11.5665 28.7745 13.9866 31.661 12.5855C34.2404 11.3754 33.5649 8 30.7398 8C30.4327 8 29.6343 8.57319 28.8973 9.33744ZM32.0295 10.6112C32.0295 10.9296 31.4767 11.1844 30.8012 11.1844C29.4501 11.1844 29.143 10.1654 30.3713 9.71956C31.2925 9.40113 32.0295 9.78325 32.0295 10.6112Z" fill="#50735F"/>
<path d="M78.8973 26.3374C76.7478 28.5665 78.7745 30.9866 81.661 29.5855C84.2404 28.3754 83.5649 25 80.7398 25C80.4327 25 79.6343 25.5732 78.8973 26.3374ZM82.0295 27.6112C82.0295 27.9296 81.4767 28.1844 80.8012 28.1844C79.4501 28.1844 79.143 27.1654 80.3713 26.7196C81.2925 26.4011 82.0295 26.7833 82.0295 27.6112Z" fill="#50735F"/>
<path d="M52.2943 1.14526C50.5789 2.53513 50.5789 3.81809 52.233 5.63561C53.8258 7.39967 56.3989 7.45313 58.1755 5.79598C61.9737 2.26785 56.3376 -2.11559 52.2943 1.14526ZM57.1953 2.05402C58.6043 3.17661 58.6043 3.97846 57.134 5.10104C55.5412 6.33054 53.9484 6.0098 52.8456 4.24574C52.0492 3.06969 52.0492 2.6955 52.7231 2.00056C53.7646 0.877978 55.7862 0.931435 57.1953 2.05402Z" fill="#50735F"/>
<path d="M8.36396 24.1608C8.36396 23.5114 8.41102 22.862 8.46665 22.2166C8.61212 20.5931 8.83033 20.2806 8.44524 20.0695C7.40552 19.4891 7.42692 22.6915 7.39697 24.1608C7.39697 24.2824 7.44791 24.3991 7.53858 24.4851C7.62925 24.5711 7.75224 24.6195 7.88047 24.6195C8.0087 24.6195 8.13167 24.5711 8.22234 24.4851C8.31301 24.3991 8.36396 24.2824 8.36396 24.1608Z" fill="#50735F"/>
<path d="M10.482 23.3978C11.5902 22.4034 11.5046 22.5211 12.5058 21.6809C13.0236 21.4821 12.7925 20.7555 12.1293 20.9341C11.7699 21.0072 10.8842 21.8758 10.6232 22.1234C9.5022 23.1949 8.76626 23.6779 9.19413 24.0838C9.622 24.4896 9.94718 23.8849 10.482 23.3978Z" fill="#50735F"/>
<path d="M10.7899 26.5555C15.2056 25.5002 15.2441 25.6464 15.3296 25.3379C15.6078 24.3841 13.3828 25.0335 10.5503 25.7438C10.4574 25.7891 10.3838 25.8635 10.342 25.9543C10.3003 26.0452 10.2928 26.1469 10.321 26.2424C10.3492 26.3378 10.4112 26.4211 10.4967 26.4782C10.5821 26.5352 10.6857 26.5626 10.7899 26.5555Z" fill="#50735F"/>
<path d="M8.34255 28.597C8.29846 28.6358 8.26349 28.6829 8.2399 28.7354C8.21631 28.7878 8.20462 28.8444 8.20563 28.9014C8.20563 28.9501 8.8346 33.8207 8.83888 33.8694C8.82097 33.9648 8.83963 34.0631 8.89147 34.1466C8.94332 34.2301 9.02493 34.2932 9.12157 34.3246C9.21821 34.3559 9.32349 34.3535 9.41838 34.3177C9.51328 34.2818 9.59153 34.215 9.63899 34.1292C9.83153 33.8247 9.63899 32.8547 9.50207 31.771C9.24535 29.8106 9.18117 27.7974 8.34255 28.597Z" fill="#50735F"/>
<path d="M5.1121 29.6119C4.76981 30.2126 4.42608 30.8133 4.08093 31.414C3.90551 31.7184 3.7258 32.0228 3.5461 32.3232C3.4049 32.5627 3.24231 32.794 3.11823 33.0416C3.06951 33.1342 3.02942 33.2306 2.99842 33.3298C2.9428 33.4921 2.91713 33.6788 3.08827 33.7803C3.16556 33.8252 3.2544 33.8489 3.345 33.8489C3.43559 33.8489 3.52443 33.8252 3.60172 33.7803C3.93546 33.5936 4.32909 32.7615 5.07786 31.5074C6.69521 28.8204 7.18298 28.4308 6.60536 28.1142C6.54785 28.0744 6.47995 28.0504 6.40904 28.0447C6.33813 28.0389 6.26693 28.0518 6.20316 28.0817C6.02265 28.202 5.87578 28.3622 5.77529 28.5485C5.52713 28.8773 5.30892 29.2466 5.1121 29.6119Z" fill="#50735F"/>
<path d="M0.700838 29.2058C0.833477 29.1206 4.65006 27.5823 4.79554 27.5214C4.89545 27.4633 4.97309 27.3764 5.01705 27.2733C5.061 27.1703 5.06896 27.0566 5.03975 26.9489C5.01055 26.8413 4.94572 26.7454 4.85478 26.6752C4.76384 26.6051 4.6516 26.5646 4.53454 26.5594C3.88381 26.7675 3.24536 27.0087 2.62197 27.2819C3.04984 27.1196 0.512564 28.0734 0.114646 28.4996C0.0425596 28.5802 0.00208956 28.6821 7.87095e-05 28.7878C-0.00193214 28.8936 0.0346404 28.9967 0.103612 29.0798C0.172584 29.1629 0.269717 29.2209 0.378551 29.2438C0.487386 29.2668 0.601244 29.2533 0.700838 29.2058Z" fill="#50735F"/>
<path d="M5.67263 25.1228C6.1005 24.7169 5.60845 24.3963 4.20076 23.1624C3.95687 22.9513 2.71177 21.7946 2.38659 21.7946C2.289 21.7978 2.19444 21.8275 2.11417 21.8803C2.03391 21.933 1.97133 22.0066 1.9339 22.0921C1.89647 22.1777 1.88578 22.2717 1.90307 22.3628C1.92037 22.454 1.96493 22.5385 2.03145 22.6063C5.10784 25.1674 5.22336 25.553 5.67263 25.1228Z" fill="#50735F"/>
<path d="M77.3173 8.14257C77.3173 7.65208 77.3528 7.1616 77.3948 6.67418C77.5047 5.44796 77.6695 5.21191 77.3787 5.0525C76.5934 4.61413 76.6095 7.03284 76.5869 8.14257C76.5869 8.23444 76.6254 8.32255 76.6939 8.38752C76.7624 8.45248 76.8552 8.48897 76.9521 8.48897C77.0489 8.48897 77.1418 8.45248 77.2103 8.38752C77.2788 8.32255 77.3173 8.23444 77.3173 8.14257Z" fill="#50735F"/>
<path d="M78.9167 7.56625C79.7537 6.8152 79.6891 6.9041 80.4452 6.26953C80.8363 6.11932 80.6618 5.57059 80.1609 5.70547C79.8894 5.76065 79.2205 6.41668 79.0233 6.60367C78.1767 7.41298 77.6208 7.77777 77.944 8.08433C78.2671 8.39088 78.5127 7.93412 78.9167 7.56625Z" fill="#50735F"/>
<path d="M79.1493 9.9513C82.4844 9.15426 82.5135 9.26462 82.5781 9.03163C82.7881 8.31123 81.1077 8.80172 78.9684 9.33819C78.8982 9.37242 78.8426 9.4286 78.8111 9.49722C78.7795 9.56584 78.7739 9.64269 78.7952 9.71479C78.8164 9.78688 78.8633 9.84979 78.9278 9.89288C78.9924 9.93598 79.0706 9.95661 79.1493 9.9513Z" fill="#50735F"/>
<path d="M77.301 11.4932C77.2677 11.5225 77.2413 11.5581 77.2234 11.5977C77.2056 11.6373 77.1968 11.68 77.1976 11.7231C77.1976 11.7599 77.6726 15.4385 77.6758 15.4753C77.6623 15.5474 77.6764 15.6216 77.7156 15.6847C77.7547 15.7477 77.8164 15.7954 77.8894 15.8191C77.9623 15.8428 78.0419 15.841 78.1135 15.8139C78.1852 15.7868 78.2443 15.7363 78.2801 15.6715C78.4256 15.4416 78.2801 14.7089 78.1767 13.8904C77.9828 12.4098 77.9344 10.8893 77.301 11.4932Z" fill="#50735F"/>
<path d="M74.8612 12.2597C74.6027 12.7134 74.3431 13.1671 74.0824 13.6208C73.9499 13.8507 73.8142 14.0806 73.6784 14.3074C73.5718 14.4883 73.449 14.663 73.3553 14.85C73.3185 14.92 73.2882 14.9928 73.2648 15.0677C73.2228 15.1903 73.2034 15.3313 73.3326 15.408C73.391 15.4418 73.4581 15.4598 73.5265 15.4598C73.595 15.4598 73.6621 15.4418 73.7204 15.408C73.9725 15.267 74.2698 14.6385 74.8353 13.6913C76.0569 11.6619 76.4253 11.3676 75.989 11.1285C75.9456 11.0984 75.8943 11.0803 75.8408 11.076C75.7872 11.0716 75.7334 11.0813 75.6853 11.104C75.5489 11.1948 75.438 11.3158 75.3621 11.4565C75.1747 11.7048 75.0099 11.9838 74.8612 12.2597Z" fill="#50735F"/>
<path d="M71.5293 11.953C71.6295 11.8886 74.5121 10.7267 74.622 10.6808C74.6974 10.6369 74.7561 10.5712 74.7893 10.4934C74.8225 10.4156 74.8285 10.3297 74.8064 10.2484C74.7844 10.1671 74.7354 10.0946 74.6667 10.0417C74.598 9.98874 74.5133 9.95808 74.4248 9.95422C73.9334 10.1114 73.4512 10.2935 72.9803 10.4999C73.3035 10.3773 71.3871 11.0977 71.0866 11.4195C71.0321 11.4805 71.0016 11.5574 71.0001 11.6373C70.9985 11.7171 71.0262 11.7951 71.0783 11.8578C71.1303 11.9206 71.2037 11.9643 71.2859 11.9817C71.3681 11.999 71.4541 11.9889 71.5293 11.953Z" fill="#50735F"/>
<path d="M75.2845 8.86909C75.6077 8.56254 75.2361 8.32036 74.1729 7.38843C73.9887 7.22903 73.0483 6.35535 72.8027 6.35535C72.729 6.35776 72.6575 6.38024 72.5969 6.42009C72.5363 6.45994 72.489 6.51548 72.4608 6.5801C72.4325 6.64472 72.4244 6.71569 72.4375 6.78454C72.4505 6.8534 72.4842 6.91724 72.5344 6.96845C74.858 8.90281 74.9452 9.19404 75.2845 8.86909Z" fill="#50735F"/>
</svg>
