<svg width="113" height="113" viewBox="0 0 113 113" fill="none" xmlns="http://www.w3.org/2000/svg">
<path d="M87.0482 112.733C86.5211 112.089 86.1174 111.362 85.8557 110.586C85.5547 109.794 85.2842 108.988 84.987 108.193C84.2707 106.256 83.6802 104.283 83.0135 102.331C82.3708 100.459 81.7358 98.5866 81.1085 96.7144C80.5052 94.8276 79.7721 92.9804 78.9139 91.1847C78.4758 90.2992 77.969 89.4462 77.5614 88.5463C77.1537 87.6464 76.7994 86.7392 76.445 85.8357C76.0907 84.9321 75.7402 83.9888 75.302 83.0925C74.8639 82.1962 74.3724 81.3035 73.8542 80.436C72.8484 78.7591 71.713 77.1507 70.8063 75.4159C70.3733 74.566 69.9979 73.6908 69.6823 72.7956C69.3363 71.8946 68.9264 71.0167 68.4555 70.1681C67.9907 69.2899 67.5335 68.4116 67.1525 67.4972C66.7715 66.5828 66.4248 65.5745 66.0895 64.6059C65.7894 63.741 65.4068 62.9038 64.9465 62.1048C64.4996 61.3735 64.1173 60.6083 63.8035 59.8171C63.6624 59.4172 63.5679 59.0039 63.5216 58.5846C63.472 58.122 64.2302 58.1328 64.2836 58.5846C64.4664 60.2797 65.7161 61.6748 66.3829 63.2072C66.7639 64.1179 67.0496 65.0757 67.3849 66.0046C67.7279 66.958 68.1312 67.891 68.5927 68.7983C69.0308 69.6549 69.5032 70.4934 69.9071 71.3644C70.311 72.2354 70.5853 73.1426 70.9739 74.0172C71.7359 75.7629 72.8141 77.3568 73.8276 78.9795C74.907 80.6425 75.8325 82.3911 76.5936 84.2057C77.329 86.0128 77.9538 87.8741 78.9063 89.598C80.8113 93.0388 81.8514 96.7722 83.1392 100.441C83.8136 102.363 84.4384 104.293 85.0899 106.223C85.4023 107.149 85.7529 108.056 86.0805 108.97C86.3277 109.754 86.6216 110.524 86.9606 111.276C87.128 111.621 87.3391 111.945 87.5893 112.241C87.9017 112.602 87.3645 113.101 87.0482 112.743V112.733Z" fill="#50735F"/>
<path d="M86.6785 112.266C87.8183 112.233 88.9361 111.96 89.9513 111.467C90.138 111.377 90.3323 111.294 90.519 111.211L90.7171 111.117C90.7578 111.097 90.7961 111.073 90.8314 111.045C90.8314 111.045 90.7895 111.106 90.7971 111.11C90.788 111.069 90.7766 111.03 90.7628 110.99C90.6828 110.792 90.5799 110.604 90.4885 110.412C90.2484 109.869 90.0931 109.296 90.0275 108.71C89.9343 108.126 89.7773 107.553 89.5589 107C89.3303 106.422 89.0674 105.855 88.8502 105.273C88.633 104.691 88.5378 104.069 88.3587 103.466C87.9417 102.301 87.4323 101.167 86.8347 100.076C86.2556 98.9312 85.7715 97.7458 85.3869 96.53C85.0669 95.4457 84.8345 94.3615 84.423 93.3134C84.0115 92.2652 83.3105 91.4376 82.7352 90.5087C82.4329 90.0233 82.1778 89.5128 81.9732 88.9835C81.78 88.4174 81.636 87.8372 81.5427 87.2487C81.4399 86.6708 81.3025 86.0988 81.1312 85.5356C80.9289 84.9592 80.6511 84.4091 80.3044 83.8984C79.9772 83.4251 79.6869 82.9299 79.4357 82.4166C79.1896 81.8681 78.9921 81.3011 78.8452 80.7215C78.472 79.5622 77.9808 78.4401 77.3783 77.3711C77.1221 76.8549 76.8307 76.3551 76.5059 75.8749C76.1249 75.3508 75.7439 74.8448 75.4086 74.3063C75.0717 73.7741 74.7983 73.208 74.5932 72.6185C74.4027 72.0727 74.2694 71.5053 74.0294 70.9776C73.5417 69.8934 72.7111 68.9862 72.0024 68.032C71.6468 67.5939 71.3877 67.0925 71.2405 66.5574C71.1223 66.0478 71.1338 65.5238 71.069 65.007C70.9204 63.8396 70.0213 62.9758 69.7165 61.8554C69.4269 60.8036 69.2593 59.7302 68.8783 58.6966C68.6344 58.0424 68.2534 57.334 67.4724 57.1822C67.012 57.1241 66.5436 57.1687 66.1046 57.3123C65.6266 57.43 65.1668 57.6061 64.7368 57.8364C64.3465 58.0177 64.0304 58.3163 63.8376 58.6857C63.6586 59.1086 62.927 58.917 63.1061 58.4869C63.4871 57.5581 64.4891 57.0666 65.4378 56.7557C66.3865 56.4449 67.3923 56.2389 68.2725 56.7051C69.0345 57.1135 69.4155 57.9304 69.6746 58.6857C69.8346 59.152 69.9755 59.6326 70.0936 60.1133C70.2053 60.7899 70.3735 61.457 70.5966 62.1084C70.8252 62.6541 71.1947 63.1348 71.45 63.6697C71.6968 64.2132 71.8363 64.7951 71.8615 65.3865C71.8569 65.9466 71.979 66.5012 72.2196 67.0128C72.5391 67.5265 72.8982 68.0169 73.294 68.4802C73.6838 68.9674 74.0438 69.4754 74.3723 70.0018C74.677 70.5312 74.9186 71.0913 75.0923 71.6715C75.2657 72.293 75.4991 72.8979 75.7896 73.4786C76.1188 74.048 76.4853 74.5972 76.8869 75.1231C77.5975 76.178 78.2155 77.2864 78.7347 78.4373C79.0353 78.9887 79.2901 79.5615 79.4967 80.1505C79.6473 80.7703 79.833 81.382 80.053 81.9828C80.5368 83.1213 81.4055 84.0538 81.817 85.2356C82.2285 86.4175 82.2666 87.7077 82.7314 88.8787C83.1581 89.963 83.9049 90.8918 84.5297 91.8749C85.1098 92.8812 85.5321 93.9624 85.7832 95.0843C86.103 96.3283 86.5221 97.5473 87.0367 98.731C87.5815 99.9418 88.2444 101.102 88.7588 102.324C89.0043 102.915 89.1943 103.526 89.3265 104.149C89.4802 104.767 89.6892 105.371 89.9513 105.956C90.2155 106.536 90.4408 107.131 90.6257 107.738C90.7895 108.338 90.8124 108.963 90.9838 109.545C91.1553 110.127 92.0468 111.171 91.2353 111.688C90.8577 111.9 90.4643 112.084 90.058 112.241C89.5466 112.481 89.0103 112.67 88.4578 112.805C87.8801 112.922 87.292 112.987 86.7014 113C86.2137 113 86.2213 112.295 86.7014 112.277L86.6785 112.266Z" fill="#50735F"/>
<path d="M65.255 56.3294C66.2888 56.3799 67.3168 56.5068 68.3297 56.7089C69.5146 56.9076 70.6995 57.1317 71.8806 57.3594C72.3531 57.4498 72.8255 57.551 73.3017 57.6233C74.2314 57.7678 75.1801 57.7642 76.1021 57.9521C76.9174 58.1148 77.6985 58.4365 78.5291 58.5304C78.8698 58.5787 79.2168 58.5689 79.5539 58.5015C79.6248 58.4927 79.6912 58.4637 79.7444 58.4184C79.6987 58.4798 79.7444 58.4184 79.7216 58.3606C79.4718 57.6872 79.0655 57.0758 78.5329 56.5715C77.9838 55.9953 77.3876 55.4611 76.7498 54.9741C76.0525 54.4247 75.3363 53.8898 74.6276 53.3657C73.9381 52.8133 73.2182 52.2957 72.4712 51.8152C71.7669 51.4633 71.1106 51.0313 70.5166 50.5286C70.0632 50.0768 70.65 49.4443 71.0919 49.2022C71.5924 48.9912 72.1164 48.8348 72.654 48.7359C73.324 48.4978 73.9463 48.1531 74.4943 47.7167C74.8654 47.4567 75.2549 47.2213 75.6601 47.012C76.083 46.806 76.5212 46.6325 76.9327 46.4048C77.3574 46.1441 77.767 45.8618 78.1595 45.5591C78.5748 45.2627 78.9977 44.9736 79.4206 44.6844C80.1826 44.1568 80.9446 43.6363 81.7066 43.0942C82.3124 42.6569 83.0096 42.1581 83.3182 41.4786V41.8401C83.2153 41.663 82.9372 41.6377 82.7467 41.6196C82.3868 41.5889 82.0246 41.5889 81.6647 41.6196C80.7998 41.6846 79.9464 41.6774 79.0777 41.6738H77.3441C76.8139 41.6466 76.2822 41.6648 75.7554 41.728C74.7876 41.8798 73.8504 42.3099 72.8788 42.3171C72.3551 42.2707 71.8277 42.2768 71.3053 42.3352C70.8317 42.4447 70.3504 42.522 69.8651 42.5665C69.3889 42.6026 68.9126 42.5918 68.4364 42.6352C67.9957 42.697 67.5457 42.6315 67.1448 42.4472C66.7659 42.2406 66.425 41.9769 66.1351 41.6666C65.7999 41.3413 65.4532 41.0413 65.0874 40.745C64.2187 40.0402 63.3234 39.3679 62.4204 38.6921C61.4298 37.9476 60.4773 37.1488 59.441 36.4657C58.9609 36.1477 58.4695 35.8441 57.997 35.5152C57.616 35.2369 57.235 34.7924 56.7473 34.702L57.1283 34.6117C56.8933 34.932 56.7538 35.3066 56.7245 35.6959C56.6521 36.0971 56.5835 36.5019 56.5264 36.9067C56.403 37.9142 56.4363 38.9334 56.6254 39.9318C56.8235 41.0811 56.6978 42.2485 56.9798 43.3905C57.1664 44.1567 57.4179 45.1796 56.9188 45.8988C56.4197 46.618 55.3948 46.5096 54.6328 46.5819C54.0688 46.6318 53.5089 46.7163 52.9564 46.8349C52.7126 46.8855 52.4725 46.9505 52.2287 46.9903C51.0857 47.1565 49.9427 47.2577 48.8226 47.4457C48.1178 47.553 47.4225 47.7101 46.7423 47.9155C46.4946 47.9906 46.2568 48.0925 46.0336 48.2191C45.9634 48.2572 45.9014 48.3074 45.8508 48.3673C45.8165 48.4034 45.8508 48.3348 45.8241 48.407C45.8241 48.407 45.8241 48.4649 45.8012 48.4793L45.7098 48.1179C46.2813 48.6022 47.1119 48.7685 47.7977 49.0685C48.6892 49.4588 49.5426 49.9214 50.438 50.3045C51.0906 50.5943 51.7794 50.8044 52.4878 50.9298C53.1164 51.0418 53.7489 51.1358 54.3661 51.2912C54.9505 51.423 55.4921 51.6886 55.9434 52.0646C56.1893 52.3174 56.3585 52.6286 56.433 52.9652C56.5074 53.3018 56.4844 53.6513 56.3663 53.9765C56.1415 54.8476 55.7339 55.6969 55.4176 56.5426C55.0633 57.4823 54.7395 58.4292 54.4309 59.3834C54.0918 60.4387 53.7489 61.4941 53.3526 62.5349C53.1934 62.9583 53.0076 63.3723 52.7964 63.7746C52.6249 64.0963 52.3925 64.4975 52.5144 64.8589L51.9582 64.642C52.4476 64.3969 52.9573 64.1902 53.4822 64.024C54.1274 63.7618 54.7438 63.4397 55.3224 63.0626C56.313 62.4699 57.4789 62.2856 58.5152 61.7832C59.5515 61.2808 60.4202 60.4532 61.3536 59.799C61.6624 59.6174 61.952 59.408 62.2185 59.1737C62.5157 58.8702 62.7862 58.5413 63.0643 58.2196C63.5482 57.6702 64.3064 56.6149 65.1903 56.7739C65.6703 56.8534 65.4608 57.5474 64.9845 57.4642C65.0264 57.4642 65.0074 57.4642 64.9426 57.4859L64.8169 57.551C64.6627 57.6514 64.5197 57.7664 64.3902 57.8943C64.0739 58.1943 63.7882 58.5196 63.5025 58.8485C63.2167 59.1774 62.9957 59.4484 62.7138 59.7303C62.4307 59.9745 62.1246 60.1935 61.7994 60.3845C60.8736 61.017 60.0468 61.8049 59.0486 62.3362C58.0504 62.8675 56.9874 63.012 56.031 63.5108C55.6958 63.6843 55.3948 63.9047 55.0709 64.0963C54.742 64.2851 54.398 64.4495 54.0422 64.5878C53.4521 64.7771 52.8767 65.0054 52.3201 65.2709C52.2698 65.2982 52.2135 65.3143 52.1556 65.3179C52.0977 65.3214 52.0398 65.3124 51.9861 65.2915C51.9325 65.2706 51.8846 65.2383 51.846 65.1972C51.8075 65.156 51.7794 65.1071 51.7639 65.054C51.5315 64.3312 52.0191 63.6517 52.3277 63.0337C52.7239 62.1449 53.0574 61.2321 53.326 60.3014C53.9546 58.4039 54.5947 56.5209 55.3186 54.6524C55.5548 54.0488 55.9663 53.2067 55.4329 52.6393C55.0065 52.2708 54.4775 52.0262 53.9089 51.9345C53.2993 51.7863 52.6744 51.6996 52.0572 51.5731C51.2983 51.4191 50.5624 51.1763 49.8665 50.8503C48.9864 50.4635 48.1444 49.9973 47.2528 49.6286C46.567 49.3467 45.7288 49.1624 45.1726 48.6456C44.7916 48.2842 45.2488 47.8432 45.5536 47.6372C45.9142 47.4217 46.3073 47.2596 46.7195 47.1565C47.7952 46.869 48.8934 46.6635 50.0037 46.5421C50.7657 46.4445 51.5277 46.4048 52.2592 46.2458C53.1754 46.0411 54.1063 45.9009 55.0443 45.8265C55.5967 45.7831 56.252 45.8265 56.3816 45.194C56.553 44.37 56.172 43.5459 56.0653 42.7364C55.9396 41.7605 55.993 40.7811 55.8139 39.8089C55.6654 38.9733 55.6295 38.1231 55.7072 37.2789C55.7656 36.5487 55.8827 35.8237 56.0577 35.1104C56.1211 34.793 56.2506 34.4907 56.4387 34.2213C56.7207 33.8599 57.1245 34.0009 57.4712 34.2213C57.8179 34.4418 58.1113 34.7273 58.4504 34.9442C58.7895 35.161 59.2124 35.4538 59.6163 35.7104C60.4468 36.2489 61.2088 36.8669 61.9937 37.4633C62.7785 38.0596 63.5977 38.6668 64.3902 39.2704C65.1451 39.8211 65.8639 40.415 66.5428 41.0485C66.7978 41.3272 67.0928 41.5706 67.4191 41.7714C67.7945 41.9265 68.2121 41.9645 68.6116 41.8798C69.0345 41.8401 69.4613 41.8617 69.888 41.8256C70.3147 41.7895 70.749 41.6774 71.1872 41.6015C71.6651 41.5461 72.1477 41.5376 72.6274 41.5762C73.0899 41.5783 73.55 41.5124 73.9913 41.381C74.8285 41.1161 75.7005 40.9629 76.5821 40.9257C77.6299 40.9257 78.6814 40.9473 79.7292 40.9546C80.4378 40.9546 81.1198 40.9293 81.8247 40.8859C82.3962 40.8498 83.1048 40.81 83.6078 41.1244C83.7458 41.1861 83.8546 41.2943 83.9131 41.4279C83.9716 41.5615 83.9755 41.7111 83.924 41.8473C83.7609 42.1595 83.5447 42.444 83.2839 42.6894C82.7261 43.2032 82.1232 43.6712 81.4818 44.0881C80.655 44.6664 79.8168 45.2338 78.99 45.8121C78.2316 46.3971 77.4165 46.9126 76.5555 47.3517C75.7441 47.7497 74.9669 48.2077 74.2314 48.7215C73.6379 49.1023 72.9752 49.3756 72.2768 49.5275C71.8044 49.6395 71.1681 49.7515 71.0576 50.2792C71.0234 50.1599 70.9929 50.0443 70.9624 49.9178C71.6901 50.6406 72.715 51.0237 73.5418 51.6309C74.5705 52.3863 75.5839 53.1561 76.5898 53.9223C77.468 54.552 78.2842 55.256 79.0282 56.0258C79.4041 56.4256 79.7384 56.8589 80.0264 57.3197C80.2515 57.6253 80.3929 57.9793 80.4379 58.3497C80.4379 59.1954 79.3444 59.2605 78.6967 59.2243C77.5308 59.1593 76.4564 58.6605 75.302 58.5015C74.2961 58.3714 73.2865 58.3172 72.2883 58.1401C71.5834 58.0064 70.8786 57.869 70.1699 57.7389C69.2289 57.5618 68.2649 57.3775 67.3315 57.2474C66.6298 57.1204 65.9192 57.0419 65.2055 57.0125C65.1045 57.0125 65.0076 56.9744 64.9361 56.9066C64.8647 56.8388 64.8245 56.7469 64.8245 56.651C64.8245 56.5552 64.8647 56.4633 64.9361 56.3955C65.0076 56.3277 65.1045 56.2896 65.2055 56.2896L65.255 56.3294Z" fill="#C58A46"/>
<path d="M89.2473 104.243C89.1514 105.509 88.8427 106.752 88.3329 107.926C88.1271 108.479 88.0128 109.053 87.7499 109.588C87.466 110.023 87.2225 110.48 87.0222 110.954L86.4698 110.542L86.5574 110.485C86.9384 110.221 87.3194 110.846 86.9384 111.11L86.8508 111.168C86.5688 111.356 86.2183 111.041 86.2983 110.756C86.3504 110.54 86.4324 110.333 86.5422 110.138C86.6793 109.917 86.8394 109.722 86.9613 109.491C87.2031 108.95 87.4068 108.395 87.5709 107.828C87.9938 106.657 88.4586 105.49 88.4929 104.236C88.4929 104.14 88.533 104.048 88.6045 103.98C88.6759 103.912 88.7728 103.874 88.8739 103.874C88.9749 103.874 89.0719 103.912 89.1433 103.98C89.2148 104.048 89.2549 104.14 89.2549 104.236L89.2473 104.243Z" fill="#50735F"/>
<path d="M86.0465 96.8048C86.1147 97.1634 86.1617 97.5254 86.1875 97.889C86.1494 98.2866 86.0313 98.6552 86.0313 99.06C86.0291 99.4477 85.9648 99.8328 85.8408 100.202C85.7617 100.572 85.7032 100.946 85.6655 101.323C85.6274 101.507 85.6008 101.684 85.5551 101.879C85.4952 102.039 85.4481 102.204 85.4141 102.371C85.4141 102.544 85.4408 102.714 85.4141 102.891C85.3914 103.095 85.348 103.295 85.2845 103.491C85.1885 103.803 85.1184 104.122 85.075 104.445C85.0623 104.756 84.9652 105.059 84.7931 105.323C84.7593 105.377 84.7114 105.422 84.6539 105.453C84.5965 105.484 84.5315 105.5 84.4654 105.5C84.3993 105.5 84.3343 105.484 84.2769 105.453C84.2194 105.422 84.1715 105.377 84.1377 105.323C84.0501 105.162 84.0271 104.976 84.073 104.799C84.1682 104.348 84.8997 104.543 84.8007 104.995V104.962H84.1415C84.2734 104.742 84.3429 104.493 84.3435 104.239C84.394 103.891 84.4755 103.548 84.5873 103.213C84.6417 103.049 84.67 102.878 84.6711 102.707C84.654 102.538 84.654 102.369 84.6711 102.201C84.7016 102.027 84.7816 101.868 84.8235 101.698C84.8654 101.529 84.8959 101.337 84.9302 101.142C85.0026 100.78 84.995 100.448 85.1017 100.108C85.2241 99.7323 85.287 99.3413 85.2883 98.948C85.2883 98.5685 85.4217 98.2252 85.4522 97.8457C85.4827 97.4662 85.315 97.159 85.3074 96.8048C85.3074 96.7089 85.3475 96.617 85.419 96.5492C85.4904 96.4814 85.5873 96.4434 85.6884 96.4434C85.7894 96.4434 85.8863 96.4814 85.9578 96.5492C86.0292 96.617 86.0694 96.7089 86.0694 96.8048H86.0465Z" fill="#50735F"/>
<path d="M83.318 90.48C83.3473 91.067 83.3307 91.6553 83.2685 92.2401C83.1733 92.7931 82.998 93.3243 82.8875 93.8882C82.7757 94.3892 82.5978 94.875 82.3579 95.3338C82.1568 95.796 81.8804 96.2253 81.5388 96.606C81.2035 96.9458 80.6739 96.4326 81.0054 96.0928C81.3069 95.7409 81.5497 95.3472 81.7254 94.9254C81.9376 94.5071 82.0889 94.0633 82.175 93.6063C82.2703 93.1183 82.4341 92.6449 82.5217 92.1606C82.5833 91.606 82.5973 91.0476 82.5636 90.4908C82.5636 90.395 82.6038 90.303 82.6752 90.2353C82.7467 90.1675 82.8436 90.1294 82.9446 90.1294C83.0457 90.1294 83.1426 90.1675 83.214 90.2353C83.2855 90.303 83.3256 90.395 83.3256 90.4908L83.318 90.48Z" fill="#50735F"/>
<path d="M79.9997 82.2106C79.9997 82.9009 79.9997 83.5912 79.9997 84.2851C80.0117 84.6263 80.0028 84.9678 79.973 85.308C79.9349 85.6152 79.8549 85.9224 79.8359 86.2332C79.8276 86.5275 79.7983 86.8209 79.7482 87.1114C79.7046 87.2663 79.6778 87.4249 79.6682 87.5849C79.6682 87.7403 79.6949 87.8957 79.6682 88.0511C79.6301 88.6764 79.3672 89.2691 79.3406 89.898C79.3406 89.9939 79.3004 90.0858 79.229 90.1536C79.1575 90.2213 79.0606 90.2594 78.9596 90.2594C78.8585 90.2594 78.7616 90.2213 78.6901 90.1536C78.6187 90.0858 78.5786 89.9939 78.5786 89.898C78.6014 89.2836 78.83 88.7125 78.8986 88.0909C78.9329 87.7801 78.8681 87.4801 78.9329 87.1657C78.9983 86.8533 79.0391 86.5368 79.0548 86.2187C79.0739 85.926 79.1424 85.6405 79.1843 85.3513C79.2206 85.0116 79.232 84.6698 79.2186 84.3285C79.2186 83.6057 79.2186 82.9081 79.2186 82.1961C79.2186 82.1003 79.2588 82.0084 79.3302 81.9406C79.4017 81.8728 79.4986 81.8347 79.5996 81.8347C79.7007 81.8347 79.7976 81.8728 79.869 81.9406C79.9405 82.0084 79.9806 82.1003 79.9806 82.1961L79.9997 82.2106Z" fill="#50735F"/>
<path d="M76.3806 74.628C76.3806 75.9399 76.4492 77.2591 76.3577 78.5711C76.3294 78.8247 76.2758 79.0752 76.1977 79.3192C76.1215 79.6119 76.1024 79.9155 76.011 80.2083C75.9196 80.501 75.7672 80.7613 75.6719 81.0504C75.5448 81.3171 75.4638 81.6014 75.4319 81.8925C75.4624 82.3551 74.7042 82.3479 74.6699 81.8925C74.6813 81.6221 74.7459 81.3561 74.8604 81.1082C74.9557 80.8299 75.0471 80.5553 75.169 80.2842C75.2898 79.9939 75.3717 79.6903 75.4129 79.3806C75.4624 79.106 75.5729 78.8457 75.5957 78.5675C75.6986 77.2591 75.5957 75.9363 75.6186 74.6244C75.6186 74.5285 75.6587 74.4366 75.7302 74.3688C75.8016 74.301 75.8985 74.2629 75.9996 74.2629C76.1006 74.2629 76.1975 74.301 76.269 74.3688C76.3404 74.4366 76.3806 74.5285 76.3806 74.6244V74.628Z" fill="#50735F"/>
<path d="M73.188 68.867C73.1793 69.5918 73.2226 70.3163 73.3175 71.0356C73.4046 71.654 73.3943 72.2813 73.2871 72.8969C73.1613 73.6016 73.0127 74.3028 72.8527 74.9967C72.7794 75.5667 72.5257 76.1023 72.125 76.5327C71.7669 76.8472 71.2335 76.3376 71.5916 76.0195C71.9497 75.7015 72.045 75.1196 72.1555 74.657C72.3117 73.9883 72.4679 73.3089 72.5708 72.633C72.6477 72.0806 72.6387 71.5204 72.5441 70.9705C72.4432 70.2737 72.405 69.57 72.4298 68.867C72.4298 68.7712 72.47 68.6792 72.5414 68.6115C72.6129 68.5437 72.7098 68.5056 72.8108 68.5056C72.9119 68.5056 73.0088 68.5437 73.0802 68.6115C73.1517 68.6792 73.1918 68.7712 73.1918 68.867H73.188Z" fill="#50735F"/>
<path d="M71.168 63.5362C71.1184 64.653 70.6003 65.6541 70.3031 66.7167C70.1494 67.2119 69.9558 67.6953 69.724 68.1624C69.602 68.4154 69.5297 68.6828 69.4192 68.943C69.3751 69.0538 69.3175 69.1593 69.2477 69.2575C69.1982 69.3297 69.0649 69.4418 69.0534 69.5249C69.0534 69.6208 69.0133 69.7127 68.9418 69.7805C68.8704 69.8483 68.7735 69.8863 68.6724 69.8863C68.4896 69.8863 68.2686 69.7165 68.2914 69.5249C68.3351 69.2937 68.4385 69.0764 68.5924 68.8924C68.7227 68.6633 68.8249 68.4207 68.8972 68.1696C69.0953 67.6853 69.3658 67.2299 69.5144 66.7239C69.823 65.6794 70.3603 64.6277 70.406 63.529C70.406 63.0663 71.168 63.07 71.168 63.529V63.5362Z" fill="#50735F"/>
<path d="M69.1527 57.9232C69.1684 59.119 68.8754 60.3002 68.2993 61.3639C67.9754 61.9386 67.6706 62.5313 67.3277 63.0987C67.1906 63.33 66.9963 63.5288 66.8439 63.7529C66.7339 63.8863 66.6488 64.0367 66.5924 64.1974C66.5353 64.6528 65.7771 64.6528 65.8304 64.1974C65.9225 63.7824 66.1274 63.3974 66.4248 63.0806C66.7966 62.5466 67.1264 61.9873 67.4116 61.4073C67.7365 60.8798 67.9924 60.3166 68.1736 59.7303C68.3212 59.1383 68.3915 58.5314 68.3831 57.9232C68.3831 57.8273 68.4233 57.7354 68.4947 57.6676C68.5662 57.5998 68.6631 57.5618 68.7641 57.5618C68.8652 57.5618 68.9621 57.5998 69.0335 57.6676C69.105 57.7354 69.1451 57.8273 69.1451 57.9232H69.1527Z" fill="#50735F"/>
<path d="M62.8053 47.1455C62.5787 46.7724 62.3105 46.4234 62.0052 46.1047C61.7446 45.7306 61.5334 45.3276 61.3765 44.9047C61.1499 44.4864 60.9563 44.0527 60.7974 43.6072C60.6298 43.1482 60.4164 42.7182 60.2221 42.2628C60.1318 42.0693 60.0207 41.8852 59.8906 41.7134C59.7654 41.5155 59.6534 41.3103 59.5554 41.099C59.3191 40.6472 59.0677 40.2027 58.8505 39.7437C58.6568 39.3153 58.4877 38.8774 58.3438 38.4317C58.1886 38.0012 57.9678 37.5945 57.6885 37.2246C57.4147 36.843 57.1848 36.4347 57.0027 36.0066C56.9184 35.7954 56.8484 35.5793 56.7931 35.3596C56.736 35.1681 56.5683 35.0452 56.534 34.8392C56.454 34.3874 57.1894 34.1959 57.2656 34.6549C57.2922 34.7958 57.4332 34.9115 57.4865 35.0524C57.5399 35.1934 57.5666 35.4139 57.6428 35.6018C57.792 35.9921 57.9889 36.3645 58.2295 36.7114C58.4943 37.0483 58.7192 37.4119 58.9 37.7956C59.0867 38.2293 59.2049 38.6847 59.3839 39.1184C59.7628 39.9966 60.219 40.8429 60.7479 41.6484C60.8516 41.8384 60.9407 42.0353 61.0146 42.2375C61.1175 42.4688 61.2432 42.6892 61.3384 42.9242C61.5213 43.3723 61.6509 43.8349 61.8756 44.265C61.9938 44.4927 62.1271 44.7168 62.2338 44.9481C62.3033 45.183 62.4085 45.407 62.5462 45.6131C62.8901 45.9819 63.1974 46.38 63.4644 46.8022C63.51 46.8848 63.5201 46.9809 63.4927 47.0704C63.4653 47.16 63.4026 47.236 63.3175 47.2826C63.2324 47.3293 63.1316 47.3429 63.0362 47.3208C62.9407 47.2986 62.858 47.2423 62.8053 47.1636V47.1455Z" fill="#C58A46"/>
<path d="M83.5889 41.4859C83.4936 41.9269 82.8954 42.122 82.5106 42.2558C81.9696 42.4437 81.4057 42.5811 80.8533 42.7328C80.0913 42.9425 79.375 43.1955 78.6206 43.3798C78.296 43.4867 77.995 43.6497 77.7329 43.8605C77.402 44.0672 77.0542 44.2485 76.6928 44.4026C76.0024 44.7114 75.2908 44.9759 74.563 45.1941C74.2192 45.3151 73.8629 45.4011 73.5 45.4507C73.0657 45.4567 72.632 45.4845 72.2008 45.5339C71.8427 45.6097 71.5036 45.7652 71.1531 45.87C70.7938 45.9615 70.4239 46.0101 70.052 46.0145C69.7423 46.0518 69.4404 46.1335 69.1566 46.2567C68.7756 46.3832 68.3946 46.4952 68.0441 46.6506C67.6997 46.7941 67.333 46.8832 66.9583 46.9145C66.5706 46.9712 66.1942 47.0833 65.8419 47.247C65.451 47.4001 65.0694 47.5739 64.6989 47.7674C64.577 47.8252 64.4513 47.8722 64.3179 47.9228L64.177 47.9843C64.1351 48.0023 64.017 48.0963 64.036 48.0493C63.876 48.483 63.1445 48.2915 63.3045 47.8505C63.4645 47.4096 64.1541 47.2253 64.5885 46.9904C64.8865 46.8333 65.1974 46.6992 65.5181 46.5892C65.8537 46.4299 66.208 46.3086 66.5735 46.2278C66.8882 46.2068 67.1998 46.1547 67.5031 46.0724C67.8612 45.9567 68.1927 45.7868 68.5547 45.6748C68.8911 45.5467 69.2345 45.4357 69.5833 45.3423C69.9224 45.2772 70.273 45.3134 70.612 45.2519C70.9653 45.1649 71.3127 45.0575 71.6522 44.9303C72.0356 44.8161 72.4353 44.7588 72.8371 44.7604C73.2105 44.7628 73.5825 44.7153 73.942 44.6194C74.3573 44.4966 74.7649 44.3556 75.1764 44.2291C75.9058 44.009 76.5995 43.694 77.2376 43.293C77.4961 43.0958 77.7758 42.925 78.072 42.7834C78.3959 42.6606 78.7464 42.6208 79.074 42.5124C79.9237 42.2341 80.7885 41.9992 81.6458 41.7534C81.882 41.6847 82.122 41.6233 82.3506 41.5365C82.4751 41.4946 82.5951 41.4414 82.7088 41.3775L82.7773 41.3378C82.8054 41.3191 82.831 41.2972 82.8535 41.2727C82.8193 41.3378 82.8116 41.345 82.8269 41.2727C82.9259 40.8209 83.6536 41.0161 83.5584 41.4679L83.5889 41.4859Z" fill="#C58A46"/>
<path d="M63.735 47.8505C63.1194 49.0433 62.4391 50.205 61.6967 51.3309C61.3157 51.9092 61.0109 52.4983 60.6641 53.0838C60.3174 53.6693 59.9326 54.103 59.6545 54.6741C59.3535 55.2993 59.0106 55.9137 58.7477 56.5498C58.6318 56.8577 58.4982 57.1593 58.3477 57.4534C58.1838 57.7534 57.9667 58.0389 57.8028 58.3316C57.0804 59.4084 56.2916 60.4439 55.4406 61.4326C54.5453 62.5892 53.829 63.8722 52.7736 64.9023C52.4307 65.2348 51.8974 64.7215 52.2403 64.3927C53.1851 63.4783 53.8328 62.3579 54.6063 61.3206C55.3797 60.2833 56.2712 59.3545 56.9646 58.281C57.3457 57.7384 57.6735 57.1638 57.9438 56.5643C58.2029 55.9318 58.5267 55.3391 58.8163 54.7247C59.0925 54.1426 59.4227 53.585 59.8031 53.0585C60.1841 52.5272 60.4584 51.9345 60.7937 51.3851C61.5823 50.0949 62.4358 48.8552 63.0797 47.4818C63.2816 47.0626 63.9331 47.4348 63.7312 47.8432L63.735 47.8505Z" fill="#C58A46"/>
<path d="M63.2659 47.1672H63.5135C63.6146 47.1672 63.7115 47.2053 63.7829 47.2731C63.8544 47.3409 63.8945 47.4328 63.8945 47.5287C63.8945 47.6245 63.8544 47.7164 63.7829 47.7842C63.7115 47.852 63.6146 47.8901 63.5135 47.8901C62.9907 47.939 62.4715 48.0187 61.9591 48.1286C61.7 48.1611 61.4371 48.1684 61.1971 48.1973C60.957 48.2262 60.6141 48.3166 60.3208 48.3635C59.7264 48.4647 59.1435 48.3346 58.5529 48.4069C58.3129 48.4358 58.0805 48.5009 57.8405 48.5262C57.598 48.5443 57.3587 48.5905 57.128 48.6635C56.6022 48.8406 56.0726 48.7683 55.5392 48.8948C55.0269 49.0288 54.4971 49.0933 53.9657 49.0864C52.7503 49.0575 51.5387 49.0575 50.3234 49.0466L46.1667 49.0141C46.0656 49.0141 45.9687 48.976 45.8972 48.9082C45.8258 48.8405 45.7857 48.7485 45.7857 48.6527C45.7857 48.5568 45.8258 48.4649 45.8972 48.3971C45.9687 48.3293 46.0656 48.2912 46.1667 48.2912C48.6127 48.3093 51.0587 48.2912 53.5009 48.3491C54.0469 48.3904 54.5964 48.3551 55.1316 48.2443C55.3813 48.1776 55.636 48.1292 55.8936 48.0997C56.1837 48.1029 56.4734 48.0787 56.7584 48.0274C56.965 47.9509 57.1778 47.8904 57.3947 47.8467C57.6538 47.807 57.909 47.7925 58.1567 47.7419C58.7266 47.6931 59.2993 47.6787 59.8712 47.6985C60.1943 47.6559 60.5149 47.5968 60.8313 47.5214C61.1247 47.4744 61.418 47.46 61.7076 47.4347C62.3286 47.3769 62.9154 47.1745 63.5402 47.1672C63.5402 47.4094 63.5402 47.6479 63.5402 47.8901H63.2888C63.1877 47.8901 63.0908 47.852 63.0193 47.7842C62.9479 47.7164 62.9078 47.6245 62.9078 47.5287C62.9078 47.4328 62.9479 47.3409 63.0193 47.2731C63.0908 47.2053 63.1877 47.1672 63.2888 47.1672H63.2659Z" fill="#C58A46"/>
<path d="M79.7028 59.1015C78.7503 58.1943 77.5921 57.5148 76.5138 56.7486C75.9764 56.3907 75.4019 56.0855 74.7994 55.8378C74.224 55.574 73.7364 55.1909 73.1649 54.9234C71.9433 54.3379 70.7589 53.6851 69.6178 52.9682C69.0425 52.6067 68.4748 52.2887 67.9185 51.8839C67.3623 51.4791 66.8555 51.0563 66.2993 50.6695C65.6744 50.2394 65.0458 49.813 64.4667 49.3287C64.1923 49.0974 63.8799 48.9022 63.6094 48.6636C63.3771 48.4074 63.1 48.191 62.7903 48.0239L63.3465 47.8143V47.9047C63.2551 48.3601 62.5274 48.1613 62.615 47.7095V47.6155C62.6314 47.5631 62.6602 47.515 62.6991 47.4747C62.738 47.4343 62.786 47.4029 62.8395 47.3827C62.8931 47.3625 62.9508 47.3541 63.0082 47.3582C63.0657 47.3622 63.1214 47.3785 63.1713 47.4059C63.4422 47.5342 63.6873 47.7067 63.8952 47.9155C64.1255 48.131 64.3698 48.3326 64.6267 48.5191C65.1944 48.9383 65.724 49.3901 66.3069 49.7913C67.4156 50.5611 68.4405 51.4357 69.6101 52.1188C70.7798 52.8019 71.9952 53.5464 73.2449 54.1609C73.5192 54.2982 73.8088 54.4138 74.0678 54.5729C74.3269 54.7319 74.5974 54.9343 74.8908 55.0861C75.4853 55.344 76.0652 55.6311 76.6282 55.9463C77.2454 56.3402 77.8397 56.7811 78.4455 57.1932C79.0814 57.6167 79.6814 58.0867 80.24 58.5991C80.5867 58.928 80.0457 59.434 79.699 59.1051L79.7028 59.1015Z" fill="#C58A46"/>
<path d="M15.8465 37.3374C13.697 39.5665 15.7237 41.9866 18.6102 40.5855C21.1896 39.3754 20.5141 36 17.689 36C17.3819 36 16.5835 36.5732 15.8465 37.3374ZM18.9787 38.6112C18.9787 38.9296 18.426 39.1844 17.7504 39.1844C16.3993 39.1844 16.0922 38.1654 17.3205 37.7196C18.2417 37.4011 18.9787 37.7833 18.9787 38.6112Z" fill="#50735F"/>
<path d="M58.0135 1.33744C55.864 3.5665 57.8907 5.98663 60.7772 4.5855C63.3566 3.37544 62.6811 0 59.856 0C59.5489 0 58.7505 0.573187 58.0135 1.33744ZM61.1457 2.61119C61.1457 2.92963 60.593 3.18438 59.9174 3.18438C58.5663 3.18438 58.2592 2.16538 59.4875 1.71956C60.4087 1.40113 61.1457 1.78325 61.1457 2.61119Z" fill="#50735F"/>
<path d="M4.64779 7.14526C2.93244 8.53513 2.93244 9.81809 4.58653 11.6356C6.17935 13.3997 8.75237 13.4531 10.529 11.796C14.3272 8.26785 8.6911 3.88441 4.64779 7.14526ZM9.54878 8.05402C10.9578 9.17661 10.9578 9.97846 9.48751 11.101C7.89469 12.3305 6.30187 12.0098 5.19915 10.2457C4.40274 9.06969 4.40274 8.6955 5.07662 8.00056C6.11808 6.87798 8.13974 6.93143 9.54878 8.05402Z" fill="#50735F"/>
<path d="M0.927853 57.5367C3.80213 57.8025 12.9422 55.4913 18.8783 58.9498C15.921 61.2771 16.289 62.8734 17.5859 64.4846C21.0387 68.7485 24.9063 62.7947 20.5899 58.8705C24.3242 56.5273 28.7165 57.9964 32.2693 60.5363C32.3184 60.5688 32.3741 60.5914 32.4328 60.6025C32.4916 60.6137 32.5521 60.6132 32.6107 60.6011C32.6692 60.589 32.7245 60.5655 32.773 60.5322C32.8215 60.4989 32.8623 60.4564 32.8927 60.4074C32.9231 60.3585 32.9425 60.3041 32.9497 60.2476C32.9569 60.1912 32.9517 60.134 32.9344 60.0796C32.9172 60.0251 32.8883 59.9747 32.8495 59.9313C32.8108 59.888 32.763 59.8528 32.7092 59.8278C28.7287 56.9712 23.8847 55.5745 19.8004 58.2806C16.4464 56.0582 12.0523 55.8503 8.10213 56.0189C6.3284 56.1006 4.58407 56.2902 2.85925 56.4196C2.26078 56.4642 1.28839 56.3067 0.751386 56.5109C-0.114376 56.8597 -0.122027 57.4408 0.927853 57.5367ZM19.6697 59.5138C22.8182 62.2338 21.0842 67.0549 18.3553 63.8316C17.6568 62.9169 16.729 61.8199 19.6697 59.5138Z" fill="#50735F"/>
<path d="M100.476 1.49844C97.5117 2.41814 95.5076 4.24743 93.5688 6.72708C90.8866 10.1641 89.2324 14.445 90.3609 18.6241C85.3659 21.3117 83.4982 27.322 83.7121 29.5368C83.9077 31.4879 85.4843 30.7623 85.0959 30.0202C84.3809 28.6543 86.0533 22.2706 90.7029 19.6662C92.3102 24.0171 97.4529 24.0807 99.7317 22.559C101.434 21.4223 101.6 17.2921 95.8985 17.2247C94.4404 17.2147 92.9957 17.4895 91.6544 18.0319C90.2885 12.2677 95.3296 3.67863 102.811 2.34574C103.451 2.23149 103.769 2.35963 104.034 1.97386C104.135 1.82599 104.169 1.6463 104.131 1.47408C104.092 1.30187 103.983 1.15116 103.828 1.0549C103.307 0.721611 101.062 1.31358 100.476 1.49844ZM99.4626 20.3304C99.4424 22.3037 95.912 22.4171 94.2151 21.667C93.1218 21.0977 92.3034 20.1487 91.9318 19.0193C94.4296 17.9847 99.1373 17.6516 99.4626 20.3304Z" fill="#50735F"/>
<path d="M47.6739 26.0666C46.8739 24.8901 42.9971 22.1505 42.5734 18.7973C44.4948 19.1824 45.0521 18.5359 45.3208 17.5317C46.0254 14.8664 42.2838 15.2864 41.9968 18.1721C39.8221 17.4968 39.0484 15.3615 38.9933 13.2055C38.9915 13.1765 38.9833 13.1481 38.9694 13.1223C38.9554 13.0964 38.936 13.0736 38.9123 13.0552C38.8886 13.0368 38.8612 13.0232 38.8317 13.0153C38.8022 13.0075 38.7714 13.0055 38.741 13.0095C38.7107 13.0135 38.6816 13.0234 38.6555 13.0385C38.6294 13.0537 38.6069 13.0738 38.5893 13.0977C38.5718 13.1215 38.5597 13.1485 38.5537 13.177C38.5477 13.2054 38.548 13.2348 38.5545 13.2632C38.6116 15.6823 39.5592 17.9662 41.9982 18.6593C42.1243 20.6391 43.4311 22.3748 44.756 23.8222C45.3535 24.4703 45.9871 25.0729 46.5892 25.6872C46.798 25.9005 47.0401 26.3199 47.2967 26.4592C47.7188 26.6775 47.9666 26.4959 47.6739 26.0666ZM42.5604 18.3176C42.7097 16.2579 45.2958 15.3867 44.8009 17.4466C44.6363 18.0024 44.4675 18.703 42.5604 18.3176Z" fill="#50735F"/>
<path d="M66.5344 17.1608C66.5344 16.5114 66.5814 15.862 66.6371 15.2166C66.7825 13.5931 67.0007 13.2806 66.6157 13.0695C65.5759 12.4891 65.5973 15.6915 65.5674 17.1608C65.5674 17.2824 65.6183 17.3991 65.709 17.4851C65.7997 17.5711 65.9226 17.6195 66.0509 17.6195C66.1791 17.6195 66.3021 17.5711 66.3927 17.4851C66.4834 17.3991 66.5344 17.2824 66.5344 17.1608Z" fill="#50735F"/>
<path d="M68.6515 16.3977C69.7596 15.4033 69.6741 15.521 70.6753 14.6808C71.193 14.4819 70.9619 13.7554 70.2988 13.934C69.9393 14.0071 69.0537 14.8756 68.7927 15.1232C67.6716 16.1948 66.9357 16.6778 67.3636 17.0836C67.7914 17.4895 68.1166 16.8848 68.6515 16.3977Z" fill="#50735F"/>
<path d="M68.9594 19.5555C73.375 18.5002 73.4135 18.6464 73.4991 18.3379C73.7772 17.3841 71.5523 18.0335 68.7198 18.7438C68.6268 18.7891 68.5533 18.8635 68.5115 18.9543C68.4697 19.0452 68.4623 19.1469 68.4904 19.2424C68.5186 19.3378 68.5807 19.4211 68.6661 19.4782C68.7516 19.5352 68.8551 19.5626 68.9594 19.5555Z" fill="#50735F"/>
<path d="M66.512 21.597C66.4679 21.6358 66.4329 21.6829 66.4093 21.7354C66.3857 21.7878 66.3741 21.8444 66.3751 21.9014C66.3751 21.9501 67.004 26.8207 67.0083 26.8694C66.9904 26.9648 67.0091 27.0631 67.0609 27.1466C67.1128 27.2301 67.1944 27.2932 67.291 27.3246C67.3876 27.3559 67.4929 27.3535 67.5878 27.3177C67.6827 27.2818 67.761 27.215 67.8084 27.1292C68.001 26.8247 67.8084 25.8547 67.6715 24.771C67.4148 22.8106 67.3506 20.7974 66.512 21.597Z" fill="#50735F"/>
<path d="M63.2825 22.6118C62.9402 23.2125 62.5965 23.8132 62.2513 24.4139C62.0759 24.7183 61.8962 25.0227 61.7165 25.3231C61.5753 25.5625 61.4127 25.7939 61.2886 26.0415C61.2399 26.134 61.1998 26.2305 61.1688 26.3297C61.1132 26.492 61.0875 26.6787 61.2587 26.7802C61.336 26.825 61.4248 26.8488 61.5154 26.8488C61.606 26.8488 61.6948 26.825 61.7721 26.7802C62.1059 26.5935 62.4995 25.7614 63.2483 24.5073C64.8656 21.8203 65.3534 21.4307 64.7758 21.1141C64.7183 21.0743 64.6504 21.0503 64.5795 21.0445C64.5085 21.0388 64.4373 21.0516 64.3736 21.0816C64.1931 21.2019 64.0462 21.3621 63.9457 21.5484C63.6975 21.8771 63.4793 22.2465 63.2825 22.6118Z" fill="#50735F"/>
<path d="M58.8708 22.2059C59.0034 22.1207 62.82 20.5824 62.9655 20.5215C63.0654 20.4634 63.143 20.3765 63.187 20.2734C63.2309 20.1704 63.2389 20.0567 63.2097 19.949C63.1805 19.8414 63.1156 19.7455 63.0247 19.6754C62.9338 19.6053 62.8215 19.5647 62.7045 19.5596C62.0537 19.7676 61.4153 20.0088 60.7919 20.282C61.2198 20.1197 58.6825 21.0735 58.2846 21.4997C58.2125 21.5804 58.172 21.6822 58.17 21.788C58.168 21.8937 58.2046 21.9969 58.2735 22.08C58.3425 22.1631 58.4396 22.221 58.5485 22.2439C58.6573 22.2669 58.7712 22.2535 58.8708 22.2059Z" fill="#50735F"/>
<path d="M63.843 18.1229C64.2709 17.717 63.7789 17.3964 62.3712 16.1625C62.1273 15.9514 60.8822 14.7947 60.557 14.7947C60.4594 14.7979 60.3648 14.8276 60.2846 14.8804C60.2043 14.9332 60.1417 15.0067 60.1043 15.0923C60.0669 15.1778 60.0562 15.2718 60.0735 15.3629C60.0908 15.4541 60.1353 15.5386 60.2019 15.6064C63.2782 18.1676 63.3938 18.5531 63.843 18.1229Z" fill="#50735F"/>
<path d="M24.4286 19.1426C24.4286 18.6521 24.4641 18.1616 24.5061 17.6742C24.616 16.448 24.7808 16.2119 24.49 16.0525C23.7047 15.6141 23.7209 18.0328 23.6982 19.1426C23.6982 19.2344 23.7367 19.3226 23.8052 19.3875C23.8737 19.4525 23.9666 19.489 24.0634 19.489C24.1603 19.489 24.2531 19.4525 24.3216 19.3875C24.3901 19.3226 24.4286 19.2344 24.4286 19.1426Z" fill="#50735F"/>
<path d="M26.0278 18.5663C26.8648 17.8152 26.8001 17.9041 27.5563 17.2695C27.9474 17.1193 27.7728 16.5706 27.2719 16.7055C27.0005 16.7607 26.3316 17.4167 26.1344 17.6037C25.2877 18.413 24.7319 18.7778 25.0551 19.0843C25.3782 19.3909 25.6238 18.9341 26.0278 18.5663Z" fill="#50735F"/>
<path d="M26.2604 20.9512C29.5954 20.1541 29.6245 20.2645 29.6892 20.0315C29.8992 19.3111 28.2188 19.8016 26.0795 20.3381C26.0093 20.3723 25.9537 20.4285 25.9221 20.4971C25.8906 20.5657 25.885 20.6426 25.9062 20.7147C25.9275 20.7868 25.9744 20.8497 26.0389 20.8928C26.1035 20.9359 26.1817 20.9565 26.2604 20.9512Z" fill="#50735F"/>
<path d="M24.4121 22.4932C24.3788 22.5225 24.3523 22.5581 24.3345 22.5977C24.3167 22.6373 24.3079 22.68 24.3086 22.7231C24.3086 22.7599 24.7837 26.4385 24.7869 26.4753C24.7734 26.5474 24.7875 26.6216 24.8266 26.6847C24.8658 26.7477 24.9274 26.7954 25.0004 26.8191C25.0734 26.8428 25.1529 26.841 25.2246 26.8139C25.2963 26.7868 25.3554 26.7363 25.3912 26.6715C25.5367 26.4416 25.3912 25.7089 25.2878 24.8904C25.0939 23.4098 25.0454 21.8893 24.4121 22.4932Z" fill="#50735F"/>
<path d="M21.9728 23.2597C21.7142 23.7134 21.4546 24.1671 21.194 24.6208C21.0615 24.8507 20.9257 25.0806 20.79 25.3074C20.6834 25.4883 20.5606 25.663 20.4668 25.85C20.43 25.92 20.3998 25.9928 20.3764 26.0677C20.3343 26.1903 20.315 26.3313 20.4442 26.408C20.5026 26.4418 20.5697 26.4598 20.6381 26.4598C20.7065 26.4598 20.7736 26.4418 20.832 26.408C21.0841 26.267 21.3814 25.6385 21.9469 24.6913C23.1685 22.6619 23.5369 22.3676 23.1006 22.1285C23.0572 22.0984 23.0059 22.0803 22.9523 22.076C22.8988 22.0716 22.845 22.0813 22.7968 22.104C22.6605 22.1948 22.5496 22.3158 22.4737 22.4565C22.2862 22.7048 22.1214 22.9838 21.9728 23.2597Z" fill="#50735F"/>
<path d="M18.6407 22.9528C18.7408 22.8885 21.6234 21.7266 21.7333 21.6806C21.8088 21.6368 21.8674 21.5711 21.9006 21.4933C21.9338 21.4154 21.9398 21.3296 21.9177 21.2483C21.8957 21.167 21.8467 21.0945 21.778 21.0416C21.7094 20.9886 21.6246 20.958 21.5362 20.9541C21.0447 21.1113 20.5625 21.2934 20.0916 21.4998C20.4148 21.3771 18.4985 22.0975 18.1979 22.4194C18.1435 22.4804 18.1129 22.5573 18.1114 22.6372C18.1099 22.717 18.1375 22.7949 18.1896 22.8577C18.2417 22.9205 18.315 22.9642 18.3972 22.9815C18.4794 22.9989 18.5654 22.9887 18.6407 22.9528Z" fill="#50735F"/>
<path d="M22.3961 19.8692C22.7193 19.5627 22.3476 19.3205 21.2844 18.3886C21.1002 18.2291 20.1598 17.3555 19.9142 17.3555C19.8405 17.3579 19.7691 17.3804 19.7085 17.4202C19.6479 17.4601 19.6006 17.5156 19.5723 17.5802C19.5441 17.6448 19.536 17.7158 19.5491 17.7847C19.5621 17.8535 19.5958 17.9174 19.646 17.9686C21.9695 19.9029 22.0568 20.1942 22.3961 19.8692Z" fill="#50735F"/>
</svg>
