<svg width="49" height="69" viewBox="0 0 49 69" fill="none" xmlns="http://www.w3.org/2000/svg">
<path d="M18.4498 49.1741L3.30128 40.4006C2.67731 40.039 2.29297 39.3724 2.29297 38.6513V20.3904L18.4498 5.45369V49.1741Z" fill="#5F8A6C"/>
<path opacity="0.8" d="M31.4216 65C19.7871 63.0405 20.5181 50.0984 20.5268 49.968L20.5262 49.7962L19.1257 48.9854L34.1373 40.5151C34.6825 40.2077 35.0197 39.6304 35.0197 39.0046V20.5913L18.9961 6.15999L20.0312 7.0374L20.8611 6.26992L37.4311 21.2073V39.1423C37.4311 40.0632 36.935 40.9128 36.133 41.3658L21.1965 49.8009V49.9903C21.1936 50.0439 21.002 53.188 22.1907 56.5133C23.7687 60.9277 26.9123 63.5608 31.5328 64.3389L31.4216 65Z" fill="#C2C3C1"/>
<path d="M18.4355 49.1741V49.1657L18.4429 49.1699L18.4355 49.1741ZM18.45 49.166V5.46711L18.9964 5.9591L18.6565 5.67088L18.45 5.89809V48.3928L19.126 48.7845L18.45 49.166ZM18.4355 5.46711V5.45369L18.4429 5.4604L18.4355 5.46711Z" fill="#5F8A6C"/>
<path d="M18.4429 49.1699L18.4355 49.1657V5.46711L18.4429 5.46041L18.45 5.46711V49.166L18.4429 49.1699Z" fill="#274730"/>
<path d="M19.1253 48.7844L18.4492 48.3927V5.89801L18.6558 5.6708L18.9956 5.95901L35.0192 20.3903V38.8036C35.0192 39.4294 34.682 40.0067 34.1369 40.3141L19.1253 48.7844Z" fill="#4A6B56"/>
<path opacity="0.8" d="M18.449 5.4537L18.2215 5.20771L1.95703 20.2443V38.2243C1.95703 39.3295 2.54561 40.3506 3.50211 40.9047L18.4469 49.5603L33.8858 40.8413C34.7931 40.3289 35.3542 39.368 35.3542 38.3259V20.2416L18.4461 4.99992L18.2215 5.20771L18.449 5.4537L18.2246 5.70305L34.6839 20.5399V38.3259C34.6839 39.1261 34.2529 39.8644 33.5562 40.2577L18.4511 48.7879L3.838 40.3245C3.08868 39.8906 2.62732 39.0902 2.62732 38.2243V20.5372L18.6765 5.6997L18.449 5.4537Z" fill="white"/>
<path opacity="0.8" d="M2.2207 20.5425L18.4477 28.1628L35.0884 20.5432L34.9489 20.2382L18.4496 27.7934L2.36314 20.2389L2.2207 20.5425Z" fill="white"/>
<path opacity="0.8" d="M18.114 5.45369V49.1741H18.4492L18.1148 49.1515C18.1143 49.1584 18.0996 49.3796 18.0996 49.765C18.1009 51.0593 18.2609 54.2026 19.7028 57.2707C21.1382 60.3375 23.9065 63.3305 29.0096 64.1838L29.1209 63.5227C24.2403 62.6945 21.6932 59.9091 20.3095 56.9853C18.932 54.0622 18.7686 51.0024 18.7699 49.765C18.7699 49.5809 18.7733 49.4372 18.7767 49.3401C18.7804 49.2432 18.7835 49.1966 18.7835 49.1963L18.7843 49.1853V27.9783V5.45369H18.114Z" fill="white"/>
<path opacity="0.8" d="M23.6779 16.4599L18.3125 18.9795L18.4549 19.2825L23.8203 16.7629" fill="white"/>
<path opacity="0.8" d="M18.4607 38.19L11.2341 34.5043L11.082 34.803L18.3083 38.4885" fill="white"/>
</svg>
